<?xml version="1.0" encoding="UTF-8"?>
<svg version="1.1" xmlns="http://www.w3.org/2000/svg" width="1003" height="249">
<path d="M0 0 C1.97626122 0.002062 1.97626122 0.002062 3.9924469 0.00416565 C6.76897418 0.0088316 9.5443253 0.03346525 12.32055664 0.07397461 C15.85191417 0.12489299 19.38198309 0.13641718 22.91366482 0.13413906 C26.31761083 0.13515846 29.72114802 0.16172142 33.125 0.1875 C35.00668129 0.19250771 35.00668129 0.19250771 36.92637634 0.19761658 C53.71651692 0.4673323 65.4571522 6.92031812 77.12890625 18.69140625 C77.59296875 18.27890625 78.05703125 17.86640625 78.53515625 17.44140625 C95.13916275 3.56343067 113.79950523 -1.14251564 135.12890625 0.69140625 C139.20032647 1.49211889 142.49351574 2.71966902 146.12890625 4.69140625 C147.39347656 5.31015625 147.39347656 5.31015625 148.68359375 5.94140625 C159.45057122 11.7012483 165.89515485 20.41926645 170.12890625 31.69140625 C170.54140625 32.74328125 170.95390625 33.79515625 171.37890625 34.87890625 C173.99502576 44.68935442 173.53217768 54.77861644 171.91796875 64.7109375 C171.78580963 65.55590286 171.65365051 66.40086823 171.51748657 67.2714386 C169.87757017 77.56883276 168.00623832 87.82714264 166.11230469 98.08032227 C165.49264699 101.43995112 164.88087024 104.80095791 164.26953125 108.16210938 C163.87676656 110.3008666 163.48355512 112.43954184 163.08984375 114.578125 C162.90755219 115.58203781 162.72526062 116.58595062 162.53744507 117.62028503 C162.36701691 118.53667252 162.19658875 119.45306 162.02099609 120.3972168 C161.87238129 121.20515182 161.72376648 122.01308685 161.57064819 122.84550476 C161.12890625 124.69140625 161.12890625 124.69140625 160.12890625 125.69140625 C157.75322105 125.77980295 155.40681951 125.8067093 153.03125 125.7890625 C151.96796227 125.78694008 151.96796227 125.78694008 150.88319397 125.78477478 C148.61088913 125.77916068 146.3386815 125.76660588 144.06640625 125.75390625 C142.52929829 125.74889306 140.9921888 125.74432984 139.45507812 125.74023438 C135.67964983 125.72918667 131.90429454 125.71191266 128.12890625 125.69140625 C128.66795336 117.46379393 129.74787898 109.48295241 131.265625 101.3828125 C131.68255992 99.06592045 132.09854676 96.74885763 132.51367188 94.43164062 C133.16267844 90.83818086 133.81783336 87.24627998 134.48950195 83.65698242 C135.14233691 80.15210022 135.76836423 76.64323457 136.390625 73.1328125 C136.59467453 72.07824356 136.79872406 71.02367462 137.00895691 69.93714905 C138.45957276 61.57151716 139.04914458 51.43219642 134.06640625 44.06640625 C133.42703125 43.28265625 132.78765625 42.49890625 132.12890625 41.69140625 C131.79890625 40.70140625 131.46890625 39.71140625 131.12890625 38.69140625 C128.78582535 37.57055313 128.78582535 37.57055313 126.12890625 36.69140625 C125.51402344 36.35367188 124.89914062 36.0159375 124.265625 35.66796875 C118.78011284 33.1608791 113.07132749 33.99526618 107.54296875 35.9765625 C97.19470769 40.58559087 90.27320292 46.97944985 86.12890625 57.69140625 C84.8781042 62.78172154 84.01559119 67.92789436 83.1484375 73.09375 C82.88871776 74.58228877 82.62776691 76.0706132 82.36564636 77.55873108 C81.68288076 81.45103606 81.01444426 85.34565497 80.34979248 89.24108887 C79.27924409 95.50054099 78.18673275 101.75619539 77.09421349 108.01184273 C76.71479671 110.19652863 76.34151837 112.38219577 75.9691925 114.56809998 C75.73975396 115.89690179 75.51020199 117.22568402 75.28051758 118.55444336 C75.0816243 119.71834091 74.88273102 120.88223846 74.67781067 122.08140564 C74.12890625 124.69140625 74.12890625 124.69140625 73.12890625 125.69140625 C70.75322105 125.77980295 68.40681951 125.8067093 66.03125 125.7890625 C64.96796227 125.78694008 64.96796227 125.78694008 63.88319397 125.78477478 C61.61088913 125.77916068 59.3386815 125.76660588 57.06640625 125.75390625 C55.52929829 125.74889306 53.9921888 125.74432984 52.45507812 125.74023438 C48.67964983 125.72918667 44.90429454 125.71191266 41.12890625 125.69140625 C39.49248642 122.41856658 40.80169162 119.03770193 41.45703125 115.5625 C41.60670349 114.74000259 41.75637573 113.91750519 41.9105835 113.07008362 C42.3938659 110.42185284 42.88616713 107.77539215 43.37890625 105.12890625 C43.69592606 103.40310739 44.01233883 101.6771969 44.328125 99.95117188 C44.95497002 96.52900934 45.58230702 93.10693848 46.21069336 89.68505859 C46.43956741 88.43810211 46.43956741 88.43810211 46.67306519 87.16595459 C46.97353949 85.53481984 47.27568551 83.90399202 47.57962036 82.27349854 C48.00331512 79.99831167 48.42026104 77.72197595 48.8359375 75.4453125 C49.07546143 74.15052979 49.31498535 72.85574707 49.56176758 71.52172852 C50.98119355 61.93525669 52.13474478 50.92748306 46.12890625 42.69140625 C40.76367788 36.83033924 35.04523381 34.23455051 27.12890625 33.69140625 C19.41772203 33.46870057 11.75197322 33.42089509 4.12890625 34.69140625 C1.3688198 37.4514927 1.40304774 39.69778859 0.74023438 43.53686523 C0.55442055 44.59344582 0.55442055 44.59344582 0.36485291 45.67137146 C-0.04428539 48.00883291 -0.44205248 50.34808306 -0.83984375 52.6875 C-1.1229481 54.31751122 -1.40677211 55.9473976 -1.69128418 57.5771637 C-2.44061056 61.88063119 -3.1803941 66.18568616 -3.91815186 70.4911499 C-4.66392499 74.8342408 -5.41810668 79.17586896 -6.171875 83.51757812 C-7.15300268 89.17132153 -8.13134177 94.82552071 -9.10337067 100.48083591 C-9.46999088 102.60922903 -9.83927055 104.73714456 -10.20922852 106.86495972 C-10.62395468 109.26261925 -11.03178957 111.6614922 -11.42944336 114.06204224 C-11.59516846 115.03680511 -11.76089355 116.01156799 -11.93164062 117.01586914 C-12.06727417 117.83527481 -12.20290771 118.65468048 -12.34265137 119.49891663 C-12.87109375 121.69140625 -12.87109375 121.69140625 -14.87109375 125.69140625 C-25.43109375 125.69140625 -35.99109375 125.69140625 -46.87109375 125.69140625 C-45.5230089 114.17878625 -43.76800324 102.81632498 -41.71875 91.41015625 C-41.41457658 89.70021424 -41.11074592 87.99021122 -40.80723572 86.28015137 C-40.01473494 81.82077339 -39.2172547 77.36230011 -38.41876221 72.9039917 C-37.77336973 69.29559092 -37.13158256 65.68655341 -36.48998356 62.0774765 C-35.71330059 57.70898413 -34.93500265 53.34078009 -34.15625 48.97265625 C-34.01225328 48.16477158 -33.86825657 47.3568869 -33.71989632 46.52452087 C-32.90829269 41.97554047 -32.09012535 37.42781438 -31.26539993 32.88119507 C-30.86219596 30.64199214 -30.46809179 28.40129895 -30.07443237 26.16040039 C-29.81609431 24.71951392 -29.55748953 23.27867524 -29.29858398 21.83789062 C-29.07444321 20.57150757 -28.85030243 19.30512451 -28.61936951 18.00036621 C-26.89976958 10.39610099 -23.08484676 6.12493008 -16.63034058 1.95510864 C-11.29966814 -0.48627625 -5.7643088 -0.09889434 0 0 Z " fill="#0280F7" transform="translate(494.87109375,55.30859375)"/>
<path d="M0 0 C11.22 0 22.44 0 34 0 C33.36365189 6.36348108 32.66345066 12.49501277 31.5 18.75 C31.23935624 20.18225036 30.97893539 21.6145413 30.71875 23.046875 C30.60466797 23.66401367 30.49058594 24.28115234 30.37304688 24.91699219 C30.077561 26.56691725 29.80029388 28.22010389 29.52954102 29.87426758 C29.01370796 32.91908574 28.42401457 35.93872125 27.80859375 38.96484375 C22.50081142 60.46716473 22.50081142 60.46716473 26.5390625 81.484375 C29.5591937 84.61755924 32.97724718 85.86255985 37.2265625 86.43359375 C49.80575643 86.44805259 60.52506135 83.62252203 70 75 C77.66340762 66.00634049 80.42719516 57.06551545 82.4453125 45.64453125 C82.66065643 44.46533615 82.87600037 43.28614105 83.09786987 42.07121277 C83.78139037 38.31967623 84.4535341 34.566211 85.125 30.8125 C85.80603361 27.04855169 86.48937111 23.28502934 87.17355347 19.52165222 C87.59773094 17.18379247 88.01962462 14.84551694 88.43899536 12.50679016 C88.62944427 11.44856552 88.81989319 10.39034088 89.01611328 9.30004883 C89.18249298 8.37074051 89.34887268 7.44143219 89.52029419 6.48396301 C89.94065495 4.30729438 90.46232584 2.15069663 91 0 C102.22 0 113.44 0 125 0 C122.70715689 17.19632335 122.70715689 17.19632335 121.1171875 25.3828125 C120.85432449 26.76663872 120.85432449 26.76663872 120.58615112 28.17842102 C120.01924701 31.16128902 119.44717065 34.14313819 118.875 37.125 C118.06177413 41.3886948 117.25230519 45.65308994 116.4453125 49.91796875 C116.24075439 50.99879227 116.03619629 52.07961578 115.82543945 53.19319153 C114.42484846 60.63570027 113.09319809 68.08810508 111.8046875 75.55078125 C111.62996918 76.55768005 111.45525085 77.56457886 111.27523804 78.60198975 C110.44718339 83.37935128 109.62918594 88.15806324 108.82763672 92.93994141 C104.52568021 118.11531865 97.55739503 143.13313311 77 160 C58.04996018 173.12625808 34.90674311 175.6419238 12.5078125 171.73046875 C9.46054186 170.84286811 6.82077833 169.44284531 4 168 C4.5213472 163.60193931 5.05461246 159.20554162 5.59912109 154.81030273 C5.7827712 153.31396066 5.96312034 151.81720969 6.14013672 150.32006836 C6.39470755 148.17186031 6.66099753 146.02538807 6.9296875 143.87890625 C7.08679199 142.5854126 7.24389648 141.29191895 7.40576172 139.95922852 C7.60186035 138.98268311 7.79795898 138.0061377 8 137 C11.35076659 135.32461671 14.93819638 136.76697974 18.5 137.4375 C32.79179719 139.95320544 45.26885356 139.85200832 58 132 C65.28063983 125.82728362 67.87474791 119.04842179 70 110 C69.443125 110.53109375 68.88625 111.0621875 68.3125 111.609375 C57.2988642 121.80442976 46.77429332 124.71211799 31.94921875 124.37890625 C21.52810097 123.8159843 11.67821624 120.20071523 4 113 C3.0925 112.154375 2.185 111.30875 1.25 110.4375 C0.5075 109.633125 -0.235 108.82875 -1 108 C-1.99 106.948125 -1.99 106.948125 -3 105.875 C-13.66335184 90.54643173 -13.48237916 72.55933464 -10.348526 54.8369751 C-10.11105148 53.57592957 -9.87357697 52.31488403 -9.62890625 51.015625 C-9.38349995 49.65823268 -9.13929891 48.30062198 -8.89622498 46.94281006 C-8.26288756 43.42408552 -7.612864 39.90865611 -6.95910645 36.39367676 C-6.29439977 32.80090545 -5.64738623 29.20494895 -4.99804688 25.609375 C-4.04815551 20.36856985 -3.09272741 15.12883309 -2.12329102 9.89160156 C-1.93009781 8.84731995 -1.7369046 7.80303833 -1.53785706 6.72711182 C-1.09276841 4.47036631 -0.55788488 2.23153952 0 0 Z " fill="#0280F7" transform="translate(332,56)"/>
<path d="M0 0 C1.77936699 -0.00786278 1.77936699 -0.00786278 3.59468079 -0.0158844 C6.08467836 -0.02226793 8.57470624 -0.02101562 11.06469727 -0.01245117 C14.86333796 -0.00390612 18.66049038 -0.03281332 22.45898438 -0.06445312 C24.88932247 -0.06606459 27.31966321 -0.06548866 29.75 -0.0625 C31.44088997 -0.07935097 31.44088997 -0.07935097 33.16593933 -0.09654236 C40.78482566 -0.02943417 46.59244601 0.8910555 52.234375 6.46875 C52.68941406 7.13777344 53.14445313 7.80679688 53.61328125 8.49609375 C54.08636719 9.16769531 54.55945313 9.83929688 55.046875 10.53125 C61.47560638 21.36444095 55.58313004 39.16931782 53.4921875 50.66796875 C53.11257609 52.79918324 52.73384205 54.93055418 52.35594177 57.06207275 C51.56662495 61.50096812 50.77004101 65.93847149 49.9675293 70.375 C48.93697206 76.07297758 47.91987293 81.77325228 46.90748692 87.47448349 C46.12774874 91.86210026 45.34357115 96.24891312 44.55775261 100.63544464 C44.1809791 102.73895387 43.80500769 104.84260692 43.429842 106.9464035 C42.90733756 109.86965959 42.37947086 112.79189256 41.84985352 115.71386719 C41.69448624 116.58751923 41.53911896 117.46117126 41.37904358 118.36129761 C40.29044 124.318935 40.29044 124.318935 39.17578125 125.43359375 C36.80009605 125.52199045 34.45369451 125.5488968 32.078125 125.53125 C31.01483727 125.52912758 31.01483727 125.52912758 29.93006897 125.52696228 C27.65776413 125.52134818 25.3855565 125.50879338 23.11328125 125.49609375 C21.57617329 125.49108056 20.0390638 125.48651734 18.50195312 125.48242188 C14.72652483 125.47137417 10.95116954 125.45410016 7.17578125 125.43359375 C5.76836103 122.6187533 6.50925961 120.86423262 7.11328125 117.80859375 C7.30792969 116.80570312 7.50257813 115.8028125 7.703125 114.76953125 C7.93708984 113.61324219 7.93708984 113.61324219 8.17578125 112.43359375 C7.56992187 112.9646875 6.9640625 113.49578125 6.33984375 114.04296875 C-4.94824971 123.55969985 -15.24600546 126.09778805 -29.82421875 125.43359375 C-43.32386539 123.90130627 -55.11582131 117.92864366 -64.22265625 107.75390625 C-68.57955233 102.03649244 -71.62800155 96.26498516 -73.82421875 89.43359375 C-74.23671875 88.23734375 -74.64921875 87.04109375 -75.07421875 85.80859375 C-78.70021449 69.39272211 -74.4701239 51.54309749 -65.82421875 37.43359375 C-50.48816823 14.67136663 -27.93973197 -0.07315544 0 0 Z M-34.91015625 46.08984375 C-42.33653991 55.18337476 -42.61499938 65.21787417 -41.82421875 76.43359375 C-40.53075501 81.45223306 -37.84488761 85.26852309 -33.65234375 88.40234375 C-25.11228798 93.21981111 -16.61371996 93.35446298 -7.38671875 90.87109375 C2.04895331 87.75863248 9.17633858 82.05226486 14.17578125 73.43359375 C17.36073926 66.99867859 18.75120642 60.20297503 19.98828125 53.18359375 C20.12451904 52.4270752 20.26075684 51.67055664 20.40112305 50.89111328 C21.28797687 45.36360412 21.78894936 39.98777659 18.67578125 35.05859375 C14.99684582 32.66728572 11.44205409 32.57297482 7.17578125 32.43359375 C6.08265625 32.39363281 4.98953125 32.35367188 3.86328125 32.3125 C-11.68930776 32.02259428 -23.9271202 34.44704935 -34.91015625 46.08984375 Z " fill="#0280F7" transform="translate(258.82421875,55.56640625)"/>
<path d="M0 0 C11.23662427 8.39129881 18.8582387 19.10432841 21.58203125 32.9609375 C23.99378613 50.49687483 19.19963764 66.44820589 9.05078125 80.74609375 C7.11299598 83.24732149 5.10050896 85.63437826 3 88 C2.11248047 89.02867187 2.11248047 89.02867187 1.20703125 90.078125 C-11.48701925 103.82775753 -30.35040198 112.42995323 -48.91796875 113.28515625 C-65.84855336 113.73557369 -81.03746193 110.82180981 -93.875 98.8125 C-105.00825059 86.75830038 -108.858938 73.53636099 -108.34765625 57.50390625 C-107.39438986 41.38037899 -99.55177398 27.76784722 -89 16 C-88.45859375 15.36449219 -87.9171875 14.72898437 -87.359375 14.07421875 C-65.89955816 -9.4990649 -27.22156402 -16.87073927 0 0 Z M-63 33 C-63.93972656 33.87978516 -63.93972656 33.87978516 -64.8984375 34.77734375 C-71.33341758 41.41596244 -74.14046521 48.99036809 -74.5 58.1875 C-74.20919521 65.43885817 -72.06401695 70.31745249 -66.8125 75.3125 C-59.38848985 81.08498247 -51.15762916 81.84125202 -42 81 C-32.68592992 79.5735208 -24.78238976 74.60258538 -18.8203125 67.34765625 C-13.66692952 59.72449844 -11.17434677 52.24731617 -12 43 C-13.2756356 37.61812135 -14.86201034 32.81968277 -19 29 C-33.52615031 20.333551 -50.3144179 20.95707955 -63 33 Z " fill="#0280F7" transform="translate(784,66)"/>
<path d="M0 0 C-0.60791625 9.37557872 -2.20707381 18.53136986 -3.87109375 27.76171875 C-4.15666285 29.36345198 -4.44189941 30.96524452 -4.7268219 32.5670929 C-5.32156571 35.90503814 -5.91944381 39.242401 -6.51977539 42.5793457 C-7.28583915 46.83826871 -8.04529967 51.09833615 -8.80258083 55.35882854 C-9.38980195 58.65961858 -9.9798566 61.95989704 -10.57081795 65.2600193 C-10.85178651 66.83024223 -11.13204652 68.40059213 -11.41155815 69.97107506 C-11.80342747 72.16961848 -12.19895319 74.36747419 -12.59545898 76.56518555 C-12.81894516 77.81107956 -13.04243134 79.05697357 -13.27268982 80.34062195 C-14.05076509 84.25541877 -15.03195056 88.12780223 -16 92 C8.75 92 33.5 92 59 92 C60.74883349 97.24650046 58.11477183 102.08590593 56 107 C51.44724032 114.94926294 44.96121453 120.02668836 36.27423096 122.90229797 C29.09663262 124.7660881 22.50773753 125.40640323 15.109375 125.29296875 C14.03874817 125.28872391 12.96812134 125.28447906 11.86505127 125.28010559 C8.49309602 125.26350325 5.12177023 125.2258869 1.75 125.1875 C-0.55598087 125.17242929 -2.86197123 125.1587451 -5.16796875 125.14648438 C-10.77885544 125.11366058 -16.38938273 125.06364986 -22 125 C-22.05623535 125.62548233 -22.1124707 126.25096466 -22.17041016 126.895401 C-22.69083539 132.41745564 -23.39215727 137.85107127 -24.375 143.30859375 C-24.50438965 144.04199478 -24.6337793 144.77539581 -24.76708984 145.53102112 C-25.03760831 147.05965236 -25.30991554 148.5879681 -25.58398438 150.1159668 C-26.00332791 152.45607106 -26.41612709 154.79726432 -26.828125 157.13867188 C-27.09336919 158.63288015 -27.35898073 160.12702327 -27.625 161.62109375 C-27.74794434 162.31794785 -27.87088867 163.01480194 -27.99755859 163.73277283 C-28.51058568 166.57938765 -29.08358767 169.25076301 -30 172 C-40.56 172 -51.12 172 -62 172 C-63.29529274 168.11412179 -62.51793472 165.03712457 -61.8125 161.109375 C-61.67507889 160.31144028 -61.53765778 159.51350555 -61.39607239 158.69139099 C-60.9379242 156.0429508 -60.46906478 153.39652684 -60 150.75 C-59.67223895 148.87029112 -59.34501756 146.99048807 -59.01831055 145.1105957 C-58.023712 139.40500908 -57.01447157 133.70208338 -56 128 C-55.8588678 127.20664246 -55.7177356 126.41328491 -55.57232666 125.59588623 C-54.38687628 118.94026192 -53.1960529 112.28564729 -51.98291016 105.63500977 C-50.21013463 95.88962551 -48.50396037 86.13428025 -46.84629822 76.36869812 C-45.92975566 70.97055539 -45.00223542 65.5743101 -44.07294178 60.17834949 C-43.40857167 56.31579987 -42.75027888 52.45240961 -42.10562134 48.58651733 C-41.49229893 44.90879095 -40.86383363 41.23394917 -40.22479057 37.56060791 C-39.99017202 36.19585666 -39.76102554 34.83015102 -39.53792 33.46347046 C-37.72794859 22.40541376 -35.28194121 12.64357353 -26.14453125 5.47265625 C-17.61617902 -0.38378963 -10.1203483 -0.48001652 0 0 Z " fill="#0380F7" transform="translate(73,56)"/>
<path d="M0 0 C0.74958984 0.00451172 1.49917969 0.00902344 2.27148438 0.01367188 C4.11852383 0.02543646 5.96552213 0.04337135 7.8125 0.0625 C7.66103516 0.93986816 7.50957031 1.81723633 7.35351562 2.72119141 C6.79045547 5.99690215 6.23188187 9.27331405 5.67626953 12.55029297 C5.43553325 13.96465903 5.19304625 15.37872833 4.94873047 16.79248047 C4.59655219 18.83223958 4.25081919 20.87300595 3.90625 22.9140625 C3.69677734 24.13947754 3.48730469 25.36489258 3.27148438 26.62744141 C2.84429927 29.82451291 2.72628884 32.84251327 2.8125 36.0625 C2.1525 36.0625 1.4925 36.0625 0.8125 36.0625 C0.76732239 36.62711945 0.72214478 37.19173889 0.67559814 37.77346802 C0.01959859 45.13529193 -1.20254482 52.34734933 -2.515625 59.6171875 C-2.74650818 60.91278595 -2.97739136 62.2083844 -3.215271 63.54324341 C-3.82814007 66.98207009 -4.44551472 70.42007244 -5.06390381 73.85791016 C-5.67419719 77.25505378 -6.28031689 80.65294121 -6.88671875 84.05078125 C-7.72406565 88.74081081 -8.56356541 93.43044516 -9.40578461 98.1196022 C-10.48839324 104.14752527 -11.56284381 110.17679073 -12.62695312 116.20800781 C-12.85558044 117.50022247 -13.08420776 118.79243713 -13.31976318 120.12380981 C-13.75309765 122.57472235 -14.18469997 125.02594197 -14.61431885 127.47750854 C-14.80701355 128.56532623 -14.99970825 129.65314392 -15.19824219 130.77392578 C-15.36588074 131.72679474 -15.53351929 132.6796637 -15.70623779 133.66140747 C-16.1875 136.0625 -16.1875 136.0625 -17.1875 139.0625 C7.5625 139.0625 32.3125 139.0625 57.8125 139.0625 C56.45059263 151.31966637 52.46301868 158.71316976 42.9375 166.375 C34.91645643 170.70636353 26.86277357 172.22004509 17.80932617 172.17602539 C17.01855682 172.17617142 16.22778748 172.17631744 15.41305542 172.1764679 C12.81049821 172.17577362 10.20801339 172.168004 7.60546875 172.16015625 C5.79657531 172.15829035 3.98768136 172.15686726 2.17878723 172.15586853 C-2.57393803 172.15205694 -7.32663256 172.14223825 -12.0793457 172.13116455 C-16.9324502 172.12092123 -21.78555968 172.11636465 -26.63867188 172.11132812 C-36.15496139 172.10061475 -45.67122814 172.08355465 -55.1875 172.0625 C-56.77434862 168.88880276 -55.60540399 165.74501859 -54.9921875 162.37109375 C-54.84861313 161.55168808 -54.70503876 160.73228241 -54.55711365 159.88804626 C-54.06522893 157.09087567 -53.56381915 154.29549402 -53.0625 151.5 C-52.70804509 149.49635062 -52.35413945 147.49260401 -52.00073242 145.48876953 C-50.97517377 139.6856246 -49.94048687 133.88413408 -48.90460205 128.08282471 C-48.13704096 123.78202849 -47.3727589 119.48065195 -46.60888672 115.17919922 C-46.40491901 114.03067899 -46.40491901 114.03067899 -46.19683075 112.85895634 C-45.91734453 111.2851857 -45.63785948 109.71141486 -45.35837555 108.13764381 C-43.52386196 97.80920909 -41.6868722 87.48121613 -39.84521484 77.15405273 C-39.71123795 76.40242764 -39.57726105 75.65080256 -39.43922424 74.87640095 C-38.77798887 71.16819685 -38.11507739 67.46030613 -37.4487915 63.75300598 C-36.32472906 57.49146859 -35.20755024 51.22969839 -34.15424442 44.95580864 C-33.82787476 43.01382032 -33.49664774 41.07265033 -33.16532898 39.13150024 C-32.7662453 36.78779974 -32.375522 34.44265124 -31.99543762 32.09579468 C-30.32926652 22.39668311 -27.91397261 12.72149942 -20.1875 6.0625 C-13.42790022 1.60625699 -8.1050838 -0.09202279 0 0 Z " fill="#0280F7" transform="translate(860.1875,8.9375)"/>
<path d="M0 0 C1.28863953 -0.0159874 2.57727905 -0.03197479 3.90496826 -0.04844666 C5.30024821 -0.05482533 6.69553297 -0.06021745 8.09082031 -0.06469727 C9.53802578 -0.07367724 10.98523036 -0.0827993 12.43243408 -0.09205627 C15.46181484 -0.10850702 18.49108561 -0.11623892 21.52050781 -0.11914062 C25.37829156 -0.12451358 29.23502283 -0.16216369 33.09251022 -0.20788479 C36.08164114 -0.23781872 39.07052388 -0.24486772 42.05979156 -0.24586678 C43.48061176 -0.25003856 44.90143481 -0.26234893 46.32210541 -0.28338432 C55.00414096 -0.40168547 62.22624531 0.04433249 69.41894531 5.30639648 C75.26093357 11.47813663 75.78105962 17.45760769 75.65527344 25.58129883 C75.34517375 34.10652464 73.935834 42.54799777 72.64794922 50.96923828 C72.16753896 54.12814389 71.71220133 57.29000014 71.25878906 60.45288086 C70.95429292 62.49411982 70.64835337 64.5351441 70.34082031 66.57592773 C70.208349 67.50532669 70.07587769 68.43472565 69.93939209 69.39228821 C68.0404385 81.50225414 63.371466 91.70008025 53.73144531 99.55639648 C46.81955986 104.39740575 38.55986157 107.27116742 30.41894531 109.30639648 C29.27739751 105.88175309 29.57940954 104.33409309 30.20751953 100.81616211 C30.40457489 99.6906897 30.60163025 98.56521729 30.80465698 97.40563965 C31.02541901 96.1869519 31.24618103 94.96826416 31.47363281 93.71264648 C31.81142645 91.7913249 32.14921519 89.87000244 32.48672676 87.94863129 C32.96258322 85.24995064 33.44503461 82.55246606 33.9276123 79.85498047 C34.76549928 75.16940261 35.59811229 70.48290564 36.42312622 65.79504395 C36.86253582 63.30211162 37.30637117 60.80995396 37.75534058 58.31872559 C40.87433887 45.90248019 40.87433887 45.90248019 38.41894531 34.30639648 C35.03942914 33.17989109 32.50609164 33.1929387 28.94384766 33.20874023 C28.29152664 33.2102005 27.63920563 33.21166077 26.96711731 33.21316528 C25.55280169 33.21696701 24.13849081 33.2230791 22.72419357 33.23123169 C20.48894041 33.24398746 18.2537465 33.25050847 16.01846313 33.25537109 C11.27693057 33.26680009 6.53544692 33.28605542 1.79394531 33.30639648 C-3.70629902 33.32995451 -9.20651579 33.35034981 -14.70679855 33.36233521 C-16.9144026 33.36884279 -19.12192237 33.38134868 -21.32949829 33.39404297 C-22.67458013 33.39767342 -24.01966276 33.40102541 -25.36474609 33.40405273 C-26.54372467 33.40928955 -27.72270325 33.41452637 -28.93740845 33.41992188 C-31.58105469 33.30639648 -31.58105469 33.30639648 -32.58105469 32.30639648 C-32.03649799 22.14133804 -28.03714062 14.23314569 -20.58105469 7.30639648 C-14.22950823 2.46595296 -8.05555834 0.07591652 0 0 Z " fill="#0381F6" transform="translate(888.5810546875,55.693603515625)"/>
<path d="M0 0 C1.29524597 -0.01283524 2.59049194 -0.02567047 3.92498779 -0.03889465 C5.33703222 -0.04706359 6.749081 -0.05450703 8.16113281 -0.0612793 C8.87562843 -0.06535482 9.59012405 -0.06943035 10.32627106 -0.07362938 C14.10911262 -0.09445723 17.89191827 -0.10877237 21.67480469 -0.11816406 C25.56628235 -0.12921421 29.45718598 -0.16360667 33.34846115 -0.20333576 C36.35464483 -0.22957934 39.36069337 -0.23786275 42.36698151 -0.24144554 C43.80060955 -0.24629254 45.23423233 -0.25785238 46.6677475 -0.27648354 C55.78895489 -0.38765106 62.44843636 -0.19100923 69.63769531 5.88793945 C76.04632254 13.7783302 76.28066246 21.14518332 75.34246826 31.04489136 C74.96032424 34.03249065 74.53052963 37.0082754 74.07519531 39.9855957 C73.91185699 41.07356949 73.74851868 42.16154327 73.58023071 43.28248596 C73.23328787 45.56808179 72.88177295 47.8529879 72.52587891 50.13720703 C71.99166869 53.59887952 71.48809344 57.06415407 70.98535156 60.53051758 C68.58105747 76.46269842 65.95249661 89.70003051 52.61425781 100.17700195 C45.81768057 104.4408924 37.71420335 108.17700195 29.61425781 108.17700195 C30.18124318 100.45486854 31.25687882 92.94063552 32.68066406 85.33325195 C33.0878307 83.095019 33.49472345 80.85673621 33.90136719 78.6184082 C34.53850233 75.14227746 35.17865986 71.66676061 35.82397461 68.19213867 C36.45135774 64.80316866 37.06669171 61.41217352 37.68066406 58.02075195 C37.9712545 56.48433044 37.9712545 56.48433044 38.26771545 54.91687012 C39.46221275 48.26985956 39.84482404 41.92620064 39.61425781 35.17700195 C36.05378761 32.96477956 33.16885166 32.9395991 29.02563477 32.96582031 C28.0469342 32.96779167 28.0469342 32.96779167 27.04846191 32.96980286 C24.89967142 32.97627535 22.75124091 32.9966936 20.60253906 33.0168457 C19.108499 33.02311738 17.61445428 33.02835705 16.1204071 33.03260803 C12.19327127 33.04589577 8.26629166 33.07032857 4.3392334 33.09796143 C-1.95727062 33.14113181 -8.2538188 33.1707389 -14.55042458 33.19400215 C-16.75361934 33.204258 -18.95668983 33.2213006 -21.15983582 33.23899841 C-22.50165699 33.24582253 -23.84347927 33.25243134 -25.18530273 33.25878906 C-26.36126511 33.26704208 -27.53722748 33.2752951 -28.74882507 33.28379822 C-31.38574219 33.17700195 -31.38574219 33.17700195 -32.38574219 32.17700195 C-32.47559621 22.95797902 -29.40916123 15.66571219 -23.29589844 8.84887695 C-16.43252491 2.84167068 -8.96401725 0.07744266 0 0 Z " fill="#0280F7" transform="translate(103.3857421875,55.822998046875)"/>
<path d="M0 0 C1.65 0 3.3 0 5 0 C6.05496286 3.65720457 7.07671407 7.30685628 8 11 C9.65 7.37 11.3 3.74 13 0 C14.98 0 16.96 0 19 0 C18.69140975 2.77132017 18.3782967 5.54199986 18.0625 8.3125 C17.97548828 9.09818359 17.88847656 9.88386719 17.79882812 10.69335938 C17.71181641 11.45068359 17.62480469 12.20800781 17.53515625 12.98828125 C17.456604 13.68477783 17.37805176 14.38127441 17.29711914 15.09887695 C17 17 17 17 16 20 C14.68 20 13.36 20 12 20 C12 17.69 12 15.38 12 13 C10.68 15.31 9.36 17.62 8 20 C7.01 20 6.02 20 5 20 C4.34 17.36 3.68 14.72 3 12 C2.34 14.64 1.68 17.28 1 20 C-0.32 20 -1.64 20 -3 20 C-2.56367091 13.11059329 -1.91610155 6.64248536 0 0 Z " fill="#2D89DC" transform="translate(977,161)"/>
<path d="M0 0 C0.33 0 0.66 0 1 0 C1.18353687 4.77195869 0.87802289 9.05072255 0 13.75 C-1.1068033 19.88418451 -1.17504649 25.78584964 -1 32 C-1 32.99 -1 33.98 -1 35 C-2.485 35.495 -2.485 35.495 -4 36 C-4.66 41.94 -5.32 47.88 -6 54 C-6.66 54 -7.32 54 -8 54 C-8 54.99 -8 55.98 -8 57 C2.80465061 56.89266817 13.60923208 56.78006986 24.41375637 56.66066074 C29.43019298 56.60538761 34.44663537 56.55196074 39.46313477 56.50268555 C44.30014866 56.45510657 49.13708931 56.40276637 53.97401619 56.34705925 C55.8236618 56.32660629 57.67332752 56.30789819 59.52300835 56.29092598 C62.10452454 56.2669468 64.68590097 56.23688382 67.26733398 56.20532227 C68.03985001 56.1995668 68.81236603 56.19381134 69.60829163 56.18788147 C73.09683282 56.45320846 73.09683282 56.45320846 76 55 C78.33297433 54.95907063 80.66705225 54.95758277 83 55 C78.74797508 59.25202492 71.51152025 59.22597279 65.73985291 59.24884033 C64.6522744 59.2380545 64.6522744 59.2380545 63.54272461 59.22705078 C62.75137115 59.22734283 61.9600177 59.22763489 61.14468384 59.22793579 C58.56378697 59.22655733 55.98318934 59.21106717 53.40234375 59.1953125 C51.59916847 59.19157708 49.79599115 59.18873261 47.99281311 59.18673706 C43.27298263 59.17914227 38.55327746 59.15952995 33.83349609 59.1373291 C29.00685317 59.11678067 24.18018978 59.10771619 19.35351562 59.09765625 C9.90228904 59.07627974 0.45115499 59.04219458 -9 59 C-10.25653362 56.48693276 -9.89759109 55.46813846 -9.41088867 52.72485352 C-9.25710251 51.8395546 -9.10331635 50.95425568 -8.94487 50.04212952 C-8.77099258 49.08076584 -8.59711517 48.11940216 -8.41796875 47.12890625 C-8.15660881 45.64075661 -8.15660881 45.64075661 -7.88996887 44.12254333 C-7.32858604 40.9347483 -6.75812891 37.74865158 -6.1875 34.5625 C-5.81386234 32.44867205 -5.44080851 30.33474081 -5.06835938 28.22070312 C-3.40658047 18.80874035 -1.71471702 9.40245862 0 0 Z " fill="#2E85D5" transform="translate(814,122)"/>
<path d="M0 0 C24.42 0 48.84 0 74 0 C73 9 73 9 71 11 C71.33 8.03 71.66 5.06 72 2 C71.12747589 2.00444122 70.25495178 2.00888245 69.35598755 2.01345825 C61.14501395 2.05348375 52.93407298 2.08395827 44.72302437 2.10362434 C40.5013425 2.11407464 36.27974105 2.12825645 32.05810547 2.15087891 C27.98622723 2.17256303 23.91442647 2.18455923 19.84249496 2.18975449 C18.28670913 2.19345824 16.73092768 2.20069046 15.17517471 2.21146011 C13.00096626 2.22591638 10.82708058 2.22798044 8.65283203 2.22705078 C7.41373077 2.231492 6.17462952 2.23593323 4.89797974 2.24050903 C2 2 2 2 0 0 Z " fill="#2488E2" transform="translate(844,148)"/>
<path d="M0 0 C0.33 0 0.66 0 1 0 C0 11 0 11 -5 35 C19.75 35 44.5 35 70 35 C71.31223496 38.93670488 70.24296256 41.12488144 69 45 C68.67 45 68.34 45 68 45 C68.33 42.03 68.66 39.06 69 36 C44.25 36 19.5 36 -6 36 C-6 20 -6 20 -5 18 C-4.34 18 -3.68 18 -3 18 C-3.061875 16.700625 -3.12375 15.40125 -3.1875 14.0625 C-3.21187142 8.94450211 -1.87433898 4.71931779 0 0 Z " fill="#3187D1" transform="translate(62,113)"/>
<path d="M0 0 C2.15465933 2.15465933 2.63689477 3.40049281 3.5625 6.25 C3.81128906 6.99765625 4.06007813 7.7453125 4.31640625 8.515625 C8.51635691 23.77944569 5.79277865 39.79210174 -1.75 53.5 C-2.81518637 55.34393607 -3.8915938 57.18171567 -5 59 C-6.08054231 55.32933422 -5.65430878 52.76227546 -5 49 C-5.33 48.34 -5.66 47.68 -6 47 C-5.34 47 -4.68 47 -4 47 C-3.34 46.34 -2.68 45.68 -2 45 C-1.34 45.33 -0.68 45.66 0 46 C1.67519984 39.96928058 2.37923738 34.0371027 2.8125 27.8125 C2.87751709 27.0405127 2.94253418 26.26852539 3.00952148 25.47314453 C3.31509041 20.34422807 2.43784254 17.60689731 0 13 C-0.29296875 9.5703125 -0.29296875 9.5703125 -0.1875 6.125 C-0.16042969 4.97257812 -0.13335938 3.82015625 -0.10546875 2.6328125 C-0.07066406 1.76398438 -0.03585937 0.89515625 0 0 Z " fill="#1F80E1" transform="translate(800,85)"/>
<path d="M0 0 C0.33 0 0.66 0 1 0 C1.33 2.97 1.66 5.94 2 9 C1.34 9 0.68 9 0 9 C0.33 12.3 0.66 15.6 1 19 C0.01 19.33 -0.98 19.66 -2 20 C-2 20.66 -2 21.32 -2 22 C7.9 22 17.8 22 28 22 C28.66 17.38 29.32 12.76 30 8 C30.66 7.34 31.32 6.68 32 6 C31.88399745 7.68814237 31.75668975 9.37550887 31.625 11.0625 C31.55539062 12.00222656 31.48578125 12.94195312 31.4140625 13.91015625 C31 17 31 17 29 24 C18.44 24 7.88 24 -3 24 C-4.34215465 21.3156907 -3.7789514 19.92538009 -3.22265625 16.9921875 C-3.03896484 16.00605469 -2.85527344 15.01992187 -2.66601562 14.00390625 C-2.36727539 12.45509766 -2.36727539 12.45509766 -2.0625 10.875 C-1.86720703 9.83472656 -1.67191406 8.79445312 -1.47070312 7.72265625 C-0.98634101 5.14726742 -0.49586612 2.57319434 0 0 Z M3 5 C3.66 5.66 4.32 6.32 5 7 C4.01 7 3.02 7 2 7 C2.33 6.34 2.66 5.68 3 5 Z " fill="#2F87DA" transform="translate(539,157)"/>
<path d="M0 0 C8.29271909 -0.06947842 16.58531679 -0.12280001 24.87825489 -0.15543652 C28.72891831 -0.1710996 32.57938275 -0.19234923 36.42993164 -0.22631836 C40.14521429 -0.25888946 43.86030544 -0.27684817 47.57571983 -0.28463173 C48.99393415 -0.29017934 50.41213787 -0.30101244 51.83027077 -0.31719017 C53.81488467 -0.3389319 55.79969086 -0.34022513 57.78442383 -0.34057617 C58.91471512 -0.34723801 60.04500641 -0.35389984 61.20954895 -0.36076355 C64 0 64 0 65.86357117 1.28105164 C67.88880941 4.34440225 67.4361555 7.9511716 67.375 11.5 C67.36847412 12.31009521 67.36194824 13.12019043 67.35522461 13.95483398 C67.23266322 19.46460042 66.46371467 24.33779957 64.7265625 29.58984375 C63.96038542 32.13140967 63.66068151 34.48401884 63.4375 37.125 C63.293125 38.40375 63.14875 39.6825 63 41 C62.01 41.495 62.01 41.495 61 42 C61.39583253 35.55748438 62.27723057 29.32286573 63.5625 23 C64.85003754 16.60629181 65.37282183 10.51747788 65 4 C61.58885338 1.93840616 58.8999586 1.73016478 54.94628906 1.68115234 C53.72532532 1.66128265 52.50436157 1.64141296 51.24639893 1.62094116 C49.27591583 1.60361435 49.27591583 1.60361435 47.265625 1.5859375 C45.903695 1.56722054 44.54177652 1.54764672 43.17987061 1.5272522 C39.60266933 1.4759805 36.02543048 1.43632848 32.44805908 1.39910889 C28.79470563 1.35903795 25.14150782 1.30795975 21.48828125 1.2578125 C14.32562771 1.16111206 7.16289872 1.07668872 0 1 C0 0.67 0 0.34 0 0 Z " fill="#2887DE" transform="translate(78,87)"/>
<path d="M0 0 C4.62 0 9.24 0 14 0 C14 1.32 14 2.64 14 4 C12.02 4 10.04 4 8 4 C7.93941406 4.90363281 7.87882813 5.80726563 7.81640625 6.73828125 C7.73261719 7.91777344 7.64882813 9.09726563 7.5625 10.3125 C7.48128906 11.48425781 7.40007813 12.65601563 7.31640625 13.86328125 C7 17 7 17 6 20 C4.68 20 3.36 20 2 20 C2.14166357 18.08302063 2.28849584 16.16642277 2.4375 14.25 C2.51871094 13.18265625 2.59992187 12.1153125 2.68359375 11.015625 C2.94090773 8.56320038 3.31812218 6.36078709 4 4 C2.68 4 1.36 4 0 4 C0 2.68 0 1.36 0 0 Z " fill="#2483DA" transform="translate(961,161)"/>
<path d="M0 0 C-0.56245642 7.39642187 -1.51208463 14.62354675 -2.84765625 21.91796875 C-3.02380966 22.90122635 -3.19996307 23.88448395 -3.38145447 24.89753723 C-3.93740424 27.99500251 -4.49983057 31.09124911 -5.0625 34.1875 C-5.44379095 36.30526089 -5.82465417 38.42309883 -6.20507812 40.54101562 C-7.13178272 45.69491035 -8.06378742 50.8478244 -9 56 C-9.33 56 -9.66 56 -10 56 C-10.30088502 48.47787454 -10.40231442 38.80462885 -7 32 C-6.77377919 30.29636178 -6.59111527 28.58671299 -6.4375 26.875 C-6.35371094 25.96492188 -6.26992187 25.05484375 -6.18359375 24.1171875 C-6.09271484 23.06917969 -6.09271484 23.06917969 -6 22 C-6.66 21.67 -7.32 21.34 -8 21 C-7.01 20.67 -6.02 20.34 -5 20 C-4.90912109 18.93458984 -4.90912109 18.93458984 -4.81640625 17.84765625 C-4.73261719 16.92855469 -4.64882812 16.00945312 -4.5625 15.0625 C-4.48128906 14.14597656 -4.40007812 13.22945312 -4.31640625 12.28515625 C-4 10 -4 10 -3 9 C-2.76924918 7.65252916 -2.58846937 6.29622435 -2.4375 4.9375 C-2.293125 3.638125 -2.14875 2.33875 -2 1 C-10.25610304 1.24655122 -10.25610304 1.24655122 -18.0625 3.625 C-21 5 -21 5 -24 4 C-16.23702211 -0.71248522 -8.79851917 -0.41732107 0 0 Z " fill="#2783D6" transform="translate(73,56)"/>
<path d="M0 0 C1.19098801 -0.00287018 2.38197601 -0.00574036 3.60905457 -0.00869751 C6.10745728 -0.01072606 8.60587631 -0.00528158 11.10424805 0.00732422 C14.92467569 0.02346584 18.74405691 0.00739671 22.56445312 -0.01171875 C25.00130441 -0.0097375 27.43815504 -0.00589627 29.875 0 C31.01258255 -0.00607269 32.1501651 -0.01214539 33.32221985 -0.0184021 C39.06816983 0.03260927 43.25035293 0.19491999 48.10546875 3.3984375 C46.78546875 3.7284375 45.46546875 4.0584375 44.10546875 4.3984375 C44.10546875 5.0584375 44.10546875 5.7184375 44.10546875 6.3984375 C42.45546875 6.0684375 40.80546875 5.7384375 39.10546875 5.3984375 C39.10546875 4.4084375 39.10546875 3.4184375 39.10546875 2.3984375 C32.24117962 2.29601835 25.37709146 2.22654985 18.51220703 2.17871094 C16.18270505 2.15874286 13.85325222 2.13155871 11.52392578 2.09667969 C-8.91424739 1.68433963 -8.91424739 1.68433963 -28.10595703 8.05371094 C-30.89453125 9.3984375 -30.89453125 9.3984375 -33.26953125 9.0859375 C-33.80578125 8.8590625 -34.34203125 8.6321875 -34.89453125 8.3984375 C-33.29592382 7.61614025 -31.69019004 6.84840719 -30.08203125 6.0859375 C-29.18871094 5.65667969 -28.29539063 5.22742187 -27.375 4.78515625 C-18.21336073 1.13489594 -9.8315639 -0.05295442 0 0 Z " fill="#2787E1" transform="translate(258.89453125,55.6015625)"/>
<path d="M0 0 C1.45107089 -0.00015533 2.90214218 -0.00164988 4.35321045 -0.00440979 C7.37563702 -0.00578554 10.39758424 0.00663037 13.41992188 0.02954102 C17.28226243 0.05802616 21.14381423 0.05514994 25.00621414 0.0424509 C27.99520547 0.03548096 30.98401608 0.04329621 33.97298431 0.05570793 C35.39705461 0.0602025 36.82114442 0.06057678 38.24521637 0.05664253 C40.23545051 0.05371504 42.22568043 0.07245192 44.21582031 0.09204102 C45.3448175 0.097444 46.4738147 0.10284698 47.63702393 0.1084137 C51.21962912 0.54796118 53.67887794 1.71980289 56.796875 3.49609375 C55.046875 4.62109375 55.046875 4.62109375 52.796875 5.49609375 C50.734375 4.55859375 50.734375 4.55859375 48.796875 3.49609375 C47.806875 3.82609375 46.816875 4.15609375 45.796875 4.49609375 C45.796875 3.83609375 45.796875 3.17609375 45.796875 2.49609375 C38.39011443 2.42626695 30.98342604 2.37311793 23.57640171 2.34065723 C20.13618316 2.32506959 16.69619152 2.30395967 13.25610352 2.26977539 C9.29185803 2.23063368 5.32770113 2.21632746 1.36328125 2.203125 C0.14105362 2.18764114 -1.08117401 2.17215729 -2.34043884 2.15620422 C-8.5140388 2.15499882 -13.61266701 2.48645806 -19.32069397 4.94779968 C-21.62089628 5.61777763 -22.96175235 5.24746354 -25.203125 4.49609375 C-16.89941506 0.18825486 -9.20152573 -0.08091643 0 0 Z " fill="#288DE8" transform="translate(112.203125,55.50390625)"/>
<path d="M0 0 C0.33 0 0.66 0 1 0 C1.22197585 2.10277123 1.42713637 4.20732302 1.625 6.3125 C1.74101562 7.48425781 1.85703125 8.65601563 1.9765625 9.86328125 C2 13 2 13 0 16 C-0.42043494 18.37421408 -0.42043494 18.37421408 -0.5625 20.9375 C-0.79448389 24.07638408 -1.14829153 26.96622852 -2 30 C-0.02 30 1.96 30 4 30 C4 29.34 4 28.68 4 28 C5.98 28 7.96 28 10 28 C10.33 27.01 10.66 26.02 11 25 C11.66 25.33 12.32 25.66 13 26 C13 25.34 13 24.68 13 24 C14.65 24 16.3 24 18 24 C14.21389617 27.36223263 10.70973681 29.0963051 5.9375 30.75 C4.72964844 31.17796875 3.52179688 31.6059375 2.27734375 32.046875 C-1 33 -1 33 -5 33 C-4.43779003 25.32897817 -3.37685564 17.86530258 -1.9375 10.3125 C-1.75123047 9.31283203 -1.56496094 8.31316406 -1.37304688 7.28320312 C-0.91986013 4.85458699 -0.46213408 2.42692649 0 0 Z " fill="#2384DD" transform="translate(138,131)"/>
<path d="M0 0 C7.65025001 -0.06986457 15.30046646 -0.12299481 22.95096397 -0.15543652 C26.50437151 -0.17101602 30.05755894 -0.19211071 33.61083984 -0.22631836 C37.70672582 -0.26549776 41.80238474 -0.27977284 45.8984375 -0.29296875 C47.1592514 -0.30845261 48.42006531 -0.32393646 49.71908569 -0.33988953 C60.11238459 -0.34185127 68.20027208 1.45234544 77 7 C76.34 7.33 75.68 7.66 75 8 C73.906875 7.505 72.81375 7.01 71.6875 6.5 C67.74852296 4.89770425 66.89948246 4.85868806 63 6 C61.56516323 6.20689594 60.12726451 6.39326452 58.6875 6.5625 C56.8621875 6.7790625 56.8621875 6.7790625 55 7 C55.639375 6.525625 56.27875 6.05125 56.9375 5.5625 C58.88293306 4.16261274 58.88293306 4.16261274 60 3 C57.37822221 1.6891111 55.38475366 1.83916293 52.44873047 1.79467773 C50.70715164 1.7647599 50.70715164 1.7647599 48.9303894 1.73423767 C47.67203278 1.71752518 46.41367615 1.70081268 45.1171875 1.68359375 C43.83264679 1.66281265 42.54810608 1.64203156 41.22463989 1.62062073 C37.80850641 1.56540951 34.39231255 1.51599612 30.97607422 1.46777344 C27.49050519 1.41755143 24.00502391 1.36186903 20.51953125 1.30664062 C13.67976358 1.19907072 6.83991666 1.09762316 0 1 C0 0.67 0 0.34 0 0 Z " fill="#298BE3" transform="translate(482,56)"/>
<path d="M0 0 C1.134375 0.020625 2.26875 0.04125 3.4375 0.0625 C-1.08558505 4.58558505 -8.6286566 4.17016158 -14.68008614 4.20827675 C-18.72767691 4.18951055 -22.77350398 4.11732342 -26.8203125 4.0390625 C-28.57720597 4.01285031 -30.33411382 3.98758704 -32.09103394 3.96322632 C-36.68439139 3.89701637 -41.27744104 3.81803124 -45.87054443 3.73626709 C-50.56982738 3.65491318 -55.26928924 3.5858042 -59.96875 3.515625 C-69.16688096 3.37647998 -78.36473308 3.22382066 -87.5625 3.0625 C-87.5625 2.7325 -87.5625 2.4025 -87.5625 2.0625 C-86.52489029 2.05219254 -85.48728058 2.04188507 -84.41822815 2.03126526 C-74.66167527 1.93370396 -64.90518863 1.83098673 -55.14874363 1.72316074 C-50.13230702 1.66788761 -45.11586463 1.61446074 -40.09936523 1.56518555 C-35.26235134 1.51760657 -30.42541069 1.46526637 -25.58848381 1.40955925 C-23.7388382 1.38910629 -21.88917248 1.37039819 -20.03949165 1.35342598 C-17.45797546 1.3294468 -14.87659903 1.29938382 -12.29516602 1.26782227 C-11.52264999 1.2620668 -10.75013397 1.25631134 -9.95420837 1.25038147 C-6.16113843 1.19732009 -3.61579788 0.06343505 0 0 Z " fill="#2384EF" transform="translate(893.5625,176.9375)"/>
<path d="M0 0 C0.33 0 0.66 0 1 0 C1 7 1 7 -1 21 C8.9 21 18.8 21 29 21 C29.495 19.515 29.495 19.515 30 18 C29.505 20.475 29.505 20.475 29 23 C18.44 23 7.88 23 -3 23 C-1.875 9.5 -1.875 9.5 -0.9375 4.75 C-0.67259766 3.38101563 -0.67259766 3.38101563 -0.40234375 1.984375 C-0.26957031 1.32953125 -0.13679687 0.6746875 0 0 Z " fill="#3285D7" transform="translate(626,158)"/>
<path d="M0 0 C0.66 0 1.32 0 2 0 C1.68326504 8.09312443 1.15589152 15.40331483 -1.2421875 23.16796875 C-2.44352968 27.65752073 -2.9265071 32.22747894 -3.47265625 36.8359375 C-3.97043804 39.82262826 -4.75895713 42.25013737 -6 45 C-6.92021729 42.00251762 -7.01263361 39.86128576 -6.47094727 36.78222656 C-6.33072647 35.96167786 -6.19050568 35.14112915 -6.04603577 34.29571533 C-5.88775803 33.41953552 -5.72948029 32.54335571 -5.56640625 31.640625 C-5.40961899 30.73624695 -5.25283173 29.8318689 -5.09129333 28.90008545 C-4.58936165 26.01532176 -4.07608613 23.13270925 -3.5625 20.25 C-3.21995348 18.29309982 -2.87814767 16.33606984 -2.53710938 14.37890625 C-1.69999005 9.58438951 -0.85269235 4.79177058 0 0 Z " fill="#2E83DC" transform="translate(25,139)"/>
<path d="M0 0 C1.65 0.33 3.3 0.66 5 1 C5 1.66 5 2.32 5 3 C5.86625 2.67 6.7325 2.34 7.625 2 C10.95718275 1.01268659 13.55159538 0.83579026 17 1 C17 1.33 17 1.66 17 2 C16.154375 2.21914062 15.30875 2.43828125 14.4375 2.6640625 C4.03276552 5.57265873 -2.47453422 9.43532616 -9 18 C-11 15 -11 15 -12 12 C-10.68 11.34 -9.36 10.68 -8 10 C-7.34 10.66 -6.68 11.32 -6 12 C-6 11.01 -6 10.02 -6 9 C-5.34 9 -4.68 9 -4 9 C-4 8.34 -4 7.68 -4 7 C-3.01 7 -2.02 7 -1 7 C-0.67 4.69 -0.34 2.38 0 0 Z " fill="#1781E1" transform="translate(725,88)"/>
<path d="M0 0 C0.69038361 -0.00191345 1.38076721 -0.0038269 2.09207153 -0.00579834 C3.54950323 -0.00715621 5.00694718 -0.00348755 6.46435547 0.00488281 C8.68094474 0.01555582 10.8967176 0.00499147 13.11328125 -0.0078125 C14.53385594 -0.0064902 15.95443012 -0.00392634 17.375 0 C19.30061768 0.00338379 19.30061768 0.00338379 21.26513672 0.00683594 C24.77977311 0.26267405 27.54789422 0.99599479 30.8203125 2.265625 C30.4903125 3.255625 30.1603125 4.245625 29.8203125 5.265625 C28.97210937 5.0490625 28.12390625 4.8325 27.25 4.609375 C15.74474749 1.87845792 4.53631049 1.31295867 -7.1796875 3.265625 C-9.7451469 5.8310844 -9.72014837 7.74249168 -10.1796875 11.265625 C-10.5096875 11.265625 -10.8396875 11.265625 -11.1796875 11.265625 C-11.1796875 8.295625 -11.1796875 5.325625 -11.1796875 2.265625 C-6.86550867 0.10853559 -4.74710839 0.00835653 0 0 Z " fill="#1E9DEA" transform="translate(506.1796875,86.734375)"/>
<path d="M0 0 C0.66 0.33 1.32 0.66 2 1 C2 1.99 2 2.98 2 4 C2.99 4.33 3.98 4.66 5 5 C8.8280737 9.26556784 9.55031986 12.6066196 9.33984375 18.12109375 C8.70277968 23.5178319 7.38194956 28.75188203 6 34 C5.67 34 5.34 34 5 34 C5.06058594 33.40574219 5.12117188 32.81148437 5.18359375 32.19921875 C5.36083971 30.44584714 5.53225356 28.69188045 5.69921875 26.9375 C5.90008878 24.97575629 6.13203176 23.01695163 6.39453125 21.0625 C7.12088568 15.40911308 7.12088568 15.40911308 5.875 9.9375 C2.98320264 6.94930939 0.19216287 6.06499824 -3.9375 5.83984375 C-4.948125 5.87207031 -5.95875 5.90429688 -7 5.9375 C-10.8592199 6.05071691 -14.2367403 5.89239063 -18 5 C-18 4.67 -18 4.34 -18 4 C-9.585 3.505 -9.585 3.505 -1 3 C-0.67 2.01 -0.34 1.02 0 0 Z " fill="#228EE3" transform="translate(272,83)"/>
<path d="M0 0 C1.98 0 3.96 0 6 0 C5.69140975 2.77132017 5.3782967 5.54199986 5.0625 8.3125 C4.93198242 9.49102539 4.93198242 9.49102539 4.79882812 10.69335938 C4.66831055 11.8293457 4.66831055 11.8293457 4.53515625 12.98828125 C4.456604 13.68477783 4.37805176 14.38127441 4.29711914 15.09887695 C4 17 4 17 3 20 C1.68 20 0.36 20 -1 20 C-0.67 17.69 -0.34 15.38 0 13 C0.66 13.66 1.32 14.32 2 15 C2.66 10.71 3.32 6.42 4 2 C3.01 2 2.02 2 1 2 C0.896875 2.886875 0.79375 3.77375 0.6875 4.6875 C-0.01190702 8.0573702 -1.08742511 10.17271538 -3 13 C-3.93045933 10.44855176 -4.08564091 9.25993522 -3.22265625 6.640625 C-2.83980469 5.85171875 -2.45695313 5.0628125 -2.0625 4.25 C-1.68222656 3.45078125 -1.30195312 2.6515625 -0.91015625 1.828125 C-0.60980469 1.22484375 -0.30945313 0.6215625 0 0 Z " fill="#2A86D2" transform="translate(990,161)"/>
<path d="M0 0 C0.804375 0.495 0.804375 0.495 1.625 1 C6.01191058 2.84712024 10.5844542 1.4718486 15 0 C16.39439664 -0.06665376 17.79169875 -0.08538199 19.1875 -0.0625 C21.0746875 -0.0315625 21.0746875 -0.0315625 23 0 C23 0.33 23 0.66 23 1 C22.39414063 1.08636719 21.78828125 1.17273438 21.1640625 1.26171875 C11.69490115 2.84962427 4.06100222 6.49644532 -3 13 C-2.37240135 10.07120629 -1.41377341 7.63904371 0 5 C-0.66 5 -1.32 5 -2 5 C-2 3.68 -2 2.36 -2 1 C-1.34 0.67 -0.68 0.34 0 0 Z " fill="#1783E3" transform="translate(228,88)"/>
<path d="M0 0 C0.93065133 2.60582371 1.14917407 3.64198224 0.0625 6.25 C-0.4634375 7.11625 -0.4634375 7.11625 -1 8 C-0.01 8.33 0.98 8.66 2 9 C1.54625 9.37125 1.0925 9.7425 0.625 10.125 C-3.45423155 14.83180564 -3.54648565 21.42863122 -4.125 27.375 C-4.21136719 28.20644531 -4.29773438 29.03789062 -4.38671875 29.89453125 C-4.59718843 31.92907147 -4.79943314 33.9644597 -5 36 C-5.33 36 -5.66 36 -6 36 C-6.52229215 23.20384226 -6.22501452 11.60881087 0 0 Z " fill="#1C7FDF" transform="translate(682,101)"/>
<path d="M0 0 C1.27162597 3.8148779 0.64661571 5.3931275 -1 9 C-3.125 9.875 -3.125 9.875 -5 10 C-5 10.99 -5 11.98 -5 13 C-8.31114834 14.12880057 -11.58978257 15.21302675 -15 16 C-15 16.66 -15 17.32 -15 18 C-21.75887425 20.07965362 -27.95559921 20.21133202 -35 20 C-35 19.67 -35 19.34 -35 19 C-33.9378125 18.82984375 -32.875625 18.6596875 -31.78125 18.484375 C-19.94112913 16.49608602 -11.58941087 13.84610591 -3 5 C-1.04339949 2.27966727 -1.04339949 2.27966727 0 0 Z " fill="#2D84D7" transform="translate(272,129)"/>
<path d="M0 0 C0.33 0 0.66 0 1 0 C1 3.63 1 7.26 1 11 C0.34 11 -0.32 11 -1 11 C-1.04825928 11.58120605 -1.09651855 12.16241211 -1.14624023 12.76123047 C-1.76801251 19.62165372 -2.84247302 26.34803034 -4.0625 33.125 C-4.24876953 34.176875 -4.43503906 35.22875 -4.62695312 36.3125 C-5.08132246 38.87560908 -5.53905697 41.43806645 -6 44 C-6.33 44 -6.66 44 -7 44 C-7.12557353 36.46558802 -7.12557353 36.46558802 -6.4921875 34.1171875 C-5.61885259 30.36046113 -6.04297205 26.51395458 -6.16015625 22.6796875 C-6 20 -6 20 -4 18 C-3.39781721 15.13891142 -2.8826537 12.32275549 -2.4375 9.4375 C-1.11993243 1.11993243 -1.11993243 1.11993243 0 0 Z " fill="#2C81DD" transform="translate(862,34)"/>
<path d="M0 0 C0.33 0 0.66 0 1 0 C0.9278125 0.54785156 0.855625 1.09570312 0.78125 1.66015625 C-1.36981181 18.01673746 -1.36981181 18.01673746 4 33 C4.66 33.66 5.32 34.32 6 35 C4.02 35.495 4.02 35.495 2 36 C2 35.01 2 34.02 2 33 C1.01 33 0.02 33 -1 33 C-4.80764609 23.00492902 -3.70875682 11.18255303 -1 1 C-0.67 0.67 -0.34 0.34 0 0 Z " fill="#2582D9" transform="translate(356,106)"/>
<path d="M0 0 C0.33 0 0.66 0 1 0 C0.40884251 8.68339686 -0.97973223 17.13523382 -2.5625 25.6875 C-2.79646484 26.97333984 -3.03042969 28.25917969 -3.27148438 29.58398438 C-3.84336067 32.72346852 -4.41961428 35.86207986 -5 39 C-5.33 39 -5.66 39 -6 39 C-5.91805778 35.51994552 -5.80531951 32.04150999 -5.6875 28.5625 C-5.66494141 27.58861328 -5.64238281 26.61472656 -5.61914062 25.61132812 C-5.41353198 20.02251144 -4.74450745 15.24540981 -2.74804688 10.0078125 C-1.53216334 6.7442922 -0.80035689 3.38612532 0 0 Z " fill="#2785DA" transform="translate(490,121)"/>
<path d="M0 0 C0.33 0 0.66 0 1 0 C1.29996893 15.96501279 1.29996893 15.96501279 -0.98046875 21.2890625 C-2.69851199 25.85734607 -2.84678008 30.67379709 -3.33984375 35.50390625 C-4.00645299 39.03417412 -4.79359509 40.30541646 -7 43 C-6.28063405 33.83946655 -4.61954669 24.89503599 -2.9375 15.875 C-2.65262352 14.33079761 -2.36811543 12.78652722 -2.08398438 11.2421875 C-1.3935656 7.49399444 -0.69817501 3.74675571 0 0 Z " fill="#2785DB" transform="translate(420,70)"/>
<path d="M0 0 C-0.0625 1.75 -0.0625 1.75 -1 4 C-2.80372567 4.93407222 -4.60786089 5.86741899 -6.41796875 6.7890625 C-8.42828522 8.05824371 -8.42828522 8.05824371 -8.8125 11.6875 C-8.874375 12.780625 -8.93625 13.87375 -9 15 C-9.99 15.495 -9.99 15.495 -11 16 C-11 15.34 -11 14.68 -11 14 C-13.64 15.65 -16.28 17.3 -19 19 C-16.0800723 13.16014461 -7.21474785 0 0 0 Z " fill="#1781E7" transform="translate(216,70)"/>
<path d="M0 0 C1.32 0.33 2.64 0.66 4 1 C-5.44717202 9.85672377 -14.97209828 13.38135015 -27.9375 13.125 C-28.81212891 13.11597656 -29.68675781 13.10695312 -30.58789062 13.09765625 C-32.72538064 13.0742957 -34.86272786 13.03843247 -37 13 C-37 12.67 -37 12.34 -37 12 C-35.78183594 11.96261719 -34.56367188 11.92523438 -33.30859375 11.88671875 C-31.6848671 11.82101883 -30.06117051 11.75457291 -28.4375 11.6875 C-27.63763672 11.66494141 -26.83777344 11.64238281 -26.01367188 11.61914062 C-20.62048805 11.37699768 -16.85918078 10.33431234 -12 8 C-9.34660035 7.2035542 -6.70445342 6.61680517 -4 6 C-4 5.01 -4 4.02 -4 3 C-2.68 2.67 -1.36 2.34 0 2 C0 1.34 0 0.68 0 0 Z " fill="#2583DB" transform="translate(396,167)"/>
<path d="M0 0 C0.66 0.33 1.32 0.66 2 1 C-3.70818278 6.17718903 -7.38133474 7.13605254 -15.17578125 7.09765625 C-16.33271484 7.09443359 -17.48964844 7.09121094 -18.68164062 7.08789062 C-19.87982422 7.07951172 -21.07800781 7.07113281 -22.3125 7.0625 C-23.53001953 7.05798828 -24.74753906 7.05347656 -26.00195312 7.04882812 C-29.00135226 7.03706578 -32.00065089 7.02062826 -35 7 C-35 6.34 -35 5.68 -35 5 C-33.22496094 5.03480469 -33.22496094 5.03480469 -31.4140625 5.0703125 C-16.86616812 5.30403869 -16.86616812 5.30403869 -3 1.3125 C-2.01 0.879375 -1.02 0.44625 0 0 Z " fill="#2483DF" transform="translate(387,190)"/>
<path d="M0 0 C0.33 0 0.66 0 1 0 C1.38307318 6.76762616 0.17688744 12.58212978 -2 19 C-3 20 -3 20 -6.05102539 20.11352539 C-7.39991271 20.11336634 -8.74880614 20.10767612 -10.09765625 20.09765625 C-11.16094398 20.09553383 -11.16094398 20.09553383 -12.24571228 20.09336853 C-14.51801712 20.08775443 -16.79022475 20.07519963 -19.0625 20.0625 C-20.59960796 20.05748681 -22.13671745 20.05292359 -23.67382812 20.04882812 C-27.44925642 20.03778042 -31.22461171 20.02050641 -35 20 C-34.67 18.68 -34.34 17.36 -34 16 C-34 16.99 -34 17.98 -34 19 C-18.655 18.505 -18.655 18.505 -3 18 C-2.38207185 12.45084105 -2.38207185 12.45084105 -1.77368164 6.90063477 C-1.11111111 1.11111111 -1.11111111 1.11111111 0 0 Z " fill="#3D89C8" transform="translate(483,161)"/>
<path d="M0 0 C1.5296202 4.01241619 0.55427686 7.75109585 -0.21484375 11.828125 C-0.34943497 12.57713074 -0.48402618 13.32613647 -0.62269592 14.09783936 C-1.05320135 16.48337868 -1.49518223 18.86662558 -1.9375 21.25 C-2.23187952 22.86965377 -2.5255081 24.48944421 -2.81835938 26.109375 C-3.53687769 30.0745537 -4.265693 34.03771612 -5 38 C-5.33 38 -5.66 38 -6 38 C-6 33.71 -6 29.42 -6 25 C-5.34 25 -4.68 25 -4 25 C-4.01160156 24.21753906 -4.02320313 23.43507812 -4.03515625 22.62890625 C-4.04417969 21.61699219 -4.05320312 20.60507813 -4.0625 19.5625 C-4.07410156 18.55316406 -4.08570313 17.54382813 -4.09765625 16.50390625 C-4 14 -4 14 -3 13 C-2.76712992 11.31816052 -2.58735834 9.6287584 -2.4375 7.9375 C-2.31181641 6.55884766 -2.31181641 6.55884766 -2.18359375 5.15234375 C-2.12300781 4.44207031 -2.06242187 3.73179687 -2 3 C-1.34 3 -0.68 3 0 3 C0 2.01 0 1.02 0 0 Z " fill="#247CDA" transform="translate(305,136)"/>
<path d="M0 0 C0.33 0 0.66 0 1 0 C0.47030818 8.07001064 -0.83666223 15.79312161 -2.5625 23.6875 C-2.79646484 24.78255859 -3.03042969 25.87761719 -3.27148438 27.00585938 C-3.84193863 29.67185989 -4.41818224 32.33646071 -5 35 C-4.34 35.33 -3.68 35.66 -3 36 C-3.99 36 -4.98 36 -6 36 C-6.02690844 33.37493198 -6.04679404 30.75013827 -6.0625 28.125 C-6.07087891 27.37863281 -6.07925781 26.63226563 -6.08789062 25.86328125 C-6.11328125 20.2265625 -6.11328125 20.2265625 -5 18 C-4.34 18 -3.68 18 -3 18 C-3.061875 16.700625 -3.12375 15.40125 -3.1875 14.0625 C-3.21187142 8.94450211 -1.87433898 4.71931779 0 0 Z " fill="#2081DB" transform="translate(62,113)"/>
<path d="M0 0 C5.62419342 0.51129031 9.75397202 3.34023002 13.3359375 7.58203125 C17.30005007 14.03425703 16.34117503 21.72159942 16 29 C15.67 29 15.34 29 15 29 C14.96261719 28.03578125 14.92523437 27.0715625 14.88671875 26.078125 C14.82097656 24.81484375 14.75523437 23.5515625 14.6875 22.25 C14.62949219 20.99703125 14.57148437 19.7440625 14.51171875 18.453125 C13.97909762 14.85894886 13.21275826 13.72887078 11 11 C11 9.68 11 8.36 11 7 C10.01 7 9.02 7 8 7 C7.67 6.34 7.34 5.68 7 5 C5.329375 5.061875 5.329375 5.061875 3.625 5.125 C0 5 0 5 -2 3 C-1.34 2.34 -0.68 1.68 0 1 C0 0.67 0 0.34 0 0 Z " fill="#2580DA" transform="translate(948,57)"/>
<path d="M0 0 C11.22 0 22.44 0 34 0 C33.67 2.64 33.34 5.28 33 8 C32.67 8 32.34 8 32 8 C32 5.69 32 3.38 32 1 C22.1 1 12.2 1 2 1 C1.19955576 5.00222119 0.55450162 8.96005961 0 13 C-0.66 13 -1.32 13 -2 13 C-1.85769192 11.58297487 -1.71099254 10.1663904 -1.5625 8.75 C-1.48128906 7.96109375 -1.40007812 7.1721875 -1.31640625 6.359375 C-1 4 -1 4 0 0 Z " fill="#2987DE" transform="translate(423,56)"/>
<path d="M0 0 C0.66 0 1.32 0 2 0 C1.3609607 8.31114873 -0.05647731 16.43257406 -1.5625 24.625 C-1.79646484 25.91535156 -2.03042969 27.20570312 -2.27148438 28.53515625 C-2.84416743 31.69075678 -3.42041653 34.84566088 -4 38 C-4.33 38 -4.66 38 -5 38 C-4.67 31.73 -4.34 25.46 -4 19 C-3.34 19 -2.68 19 -2 19 C-2.01160156 18.28972656 -2.02320313 17.57945313 -2.03515625 16.84765625 C-2.04869141 15.46900391 -2.04869141 15.46900391 -2.0625 14.0625 C-2.07410156 13.14597656 -2.08570313 12.22945312 -2.09765625 11.28515625 C-2 9 -2 9 -1 8 C-0.76924918 6.65252916 -0.58846937 5.29622435 -0.4375 3.9375 C-0.293125 2.638125 -0.14875 1.33875 0 0 Z " fill="#2781D8" transform="translate(311,96)"/>
<path d="M0 0 C0.33 0 0.66 0 1 0 C1.37780284 7.55605684 -0.05503203 14.60332615 -1.5 22 C-1.73847656 23.25167969 -1.97695313 24.50335938 -2.22265625 25.79296875 C-2.80859555 28.86329068 -3.40121118 31.93216282 -4 35 C-4.33 35 -4.66 35 -5 35 C-5.30221599 26.53795229 -4.14920797 18.36254017 -3 10 C-2.34 10 -1.68 10 -1 10 C-1.020625 8.906875 -1.04125 7.81375 -1.0625 6.6875 C-1 3 -1 3 0 0 Z " fill="#2680DB" transform="translate(666,112)"/>
<path d="M0 0 C0.33 0.66 0.66 1.32 1 2 C0.08261831 4.2723303 -0.88741056 6.38746599 -2 8.5625 C-2.47288452 9.50053467 -2.47288452 9.50053467 -2.95532227 10.45751953 C-5.72424251 15.78695405 -9.0540546 20.4663606 -13 25 C-13.33 24.01 -13.66 23.02 -14 22 C-13.34 22 -12.68 22 -12 22 C-12.66 20.02 -13.32 18.04 -14 16 C-13.34 15.67 -12.68 15.34 -12 15 C-11.01 15.33 -10.02 15.66 -9 16 C-8.67 14.68 -8.34 13.36 -8 12 C-7.34 12 -6.68 12 -6 12 C-6 11.34 -6 10.68 -6 10 C-5.34 10 -4.68 10 -4 10 C-3.896875 9.46375 -3.79375 8.9275 -3.6875 8.375 C-2.81907303 5.37497956 -1.44379704 2.7620465 0 0 Z " fill="#217CDC" transform="translate(431,182)"/>
<path d="M0 0 C1 3 1 3 0.0625 5.4375 C-2.16128538 12.89372157 -1.64510408 20.72596377 1 28 C0.608125 27.505 0.21625 27.01 -0.1875 26.5 C-2.55091715 24.54406857 -4.01435003 24.75792027 -7 25 C-6.34 24.67 -5.68 24.34 -5 24 C-4.53092949 21.87001829 -4.53092949 21.87001829 -4.3671875 19.30859375 C-4.28339844 18.36435547 -4.19960938 17.42011719 -4.11328125 16.44726562 C-4.03464844 15.45404297 -3.95601562 14.46082031 -3.875 13.4375 C-3.78863281 12.44041016 -3.70226562 11.44332031 -3.61328125 10.41601562 C-3.40043207 7.94460012 -3.19640679 5.47276775 -3 3 C-2.01 2.67 -1.02 2.34 0 2 C0 1.34 0 0.68 0 0 Z " fill="#1882EC" transform="translate(712,109)"/>
<path d="M0 0 C0.33 0 0.66 0 1 0 C1.33 4.95 1.66 9.9 2 15 C1.01 15.495 1.01 15.495 0 16 C-0.4290258 18.09341518 -0.4290258 18.09341518 -0.5625 20.5 C-0.90394511 24.90394511 -0.90394511 24.90394511 -2 26 C-2.36760731 28.32817964 -2.70241581 30.6618385 -3 33 C-3.66 33 -4.32 33 -5 33 C-4.38074426 25.54205192 -3.26293646 18.23749511 -1.9375 10.875 C-1.75123047 9.823125 -1.56496094 8.77125 -1.37304688 7.6875 C-0.91867754 5.12439092 -0.46094303 2.56193355 0 0 Z " fill="#2784D9" transform="translate(822,76)"/>
<path d="M0 0 C2 1 2 1 3.10620117 3.2121582 C4.67744416 8.11301145 4.32738456 13.08209531 4.3125 18.1875 C4.32861328 19.27353516 4.34472656 20.35957031 4.36132812 21.47851562 C4.36553716 28.48656158 3.44245665 34.42486605 1 41 C0.67 41 0.34 41 0 41 C-0.17622846 36.94674536 0.05159239 33.50974575 1 29.5625 C3.04011016 20.0468433 3.08876501 9.26629502 0 0 Z " fill="#2888D9" transform="translate(543,99)"/>
<path d="M0 0 C0.66 0 1.32 0 2 0 C4.62201651 4.95153716 4.33144297 9.91942443 4.3125 15.375 C4.32861328 16.29539062 4.34472656 17.21578125 4.36132812 18.1640625 C4.36542148 23.89475977 3.65792157 27.9085724 1 33 C0.67 33 0.34 33 0 33 C0.14520465 31.3749437 0.29120869 29.74995883 0.4375 28.125 C0.52515625 27.11566406 0.6128125 26.10632813 0.703125 25.06640625 C0.88428659 23.19519776 1.09551661 21.32619258 1.359375 19.46484375 C2.28470488 12.69010712 1.38663088 6.66957992 0 0 Z " fill="#2987DA" transform="translate(631,101)"/>
<path d="M0 0 C0.99 0.33 1.98 0.66 3 1 C3.33 3.64 3.66 6.28 4 9 C0.25 12 0.25 12 -2 12 C-2 12.99 -2 13.98 -2 15 C-2.66 15 -3.32 15 -4 15 C-3.67 11.7 -3.34 8.4 -3 5 C-2.34 5 -1.68 5 -1 5 C-0.67 3.35 -0.34 1.7 0 0 Z " fill="#1281EB" transform="translate(20,179)"/>
<path d="M0 0 C0.66 0.33 1.32 0.66 2 1 C1.39671875 2.03125 0.7934375 3.0625 0.171875 4.125 C-2.81071119 10.09017238 -3.6547824 16.47691155 -4.75 23 C-4.97042969 24.25167969 -5.19085937 25.50335938 -5.41796875 26.79296875 C-5.95649353 29.8602186 -6.48348715 32.9289804 -7 36 C-7.33 36 -7.66 36 -8 36 C-7.88545196 33.12424132 -7.7587153 30.24987888 -7.625 27.375 C-7.5940625 26.56675781 -7.563125 25.75851563 -7.53125 24.92578125 C-7.30385614 20.26420722 -6.72196428 16.38823155 -5 12 C-4.65839844 11.02417969 -4.31679688 10.04835938 -3.96484375 9.04296875 C-3.62582031 8.10066406 -3.28679688 7.15835938 -2.9375 6.1875 C-2.59589844 5.23230469 -2.25429688 4.27710937 -1.90234375 3.29296875 C-1 1 -1 1 0 0 Z " fill="#2884DA" transform="translate(583,104)"/>
<path d="M0 0 C0.33 0 0.66 0 1 0 C1.34573171 10.44878049 1.34573171 10.44878049 -0.0625 15.25 C-1.11799468 19.47197871 -0.87215727 21.81364511 0 26 C-0.99 26.66 -1.98 27.32 -3 28 C-4.19232613 30.05003955 -4.19232613 30.05003955 -5 32 C-4.49279908 21.17126036 -2.12424249 10.60054575 0 0 Z " fill="#2386DC" transform="translate(330,67)"/>
<path d="M0 0 C0.33 0 0.66 0 1 0 C0.85890014 2.10448938 0.71195825 4.2085877 0.5625 6.3125 C0.48128906 7.48425781 0.40007813 8.65601563 0.31640625 9.86328125 C0 13 0 13 -1 16 C-2.32 16 -3.64 16 -5 16 C-4.67 12.04 -4.34 8.08 -4 4 C-3.01 4.33 -2.02 4.66 -1 5 C-0.67 3.35 -0.34 1.7 0 0 Z " fill="#2B8EE4" transform="translate(968,165)"/>
<path d="M0 0 C2 1 2 1 2.9375 3.375 C3.98373709 5.95982105 4.92113535 7.2046169 7 9 C1.22621075 8.5188509 -2.95859836 6.81532819 -8 4 C-7.38382813 3.69449219 -6.76765625 3.38898438 -6.1328125 3.07421875 C-4.69750612 2.35130803 -3.27788952 1.59646768 -1.875 0.8125 C-1.25625 0.544375 -0.6375 0.27625 0 0 Z " fill="#1381EB" transform="translate(708,168)"/>
<path d="M0 0 C3.56764821 0.57619097 5.25159497 1.86969484 7.75 4.4375 C8.67039062 5.36369141 8.67039062 5.36369141 9.609375 6.30859375 C11 8 11 8 11 10 C3.25 9.25 3.25 9.25 1 7 C0.59952556 4.67724823 0.2602896 2.34260643 0 0 Z " fill="#1280E6" transform="translate(785,69)"/>
<path d="M0 0 C0.33 0.66 0.66 1.32 1 2 C-0.01553817 5.0466145 -1.20762558 7.31143836 -3 10 C-3.99 10 -4.98 10 -6 10 C-6.33 11.65 -6.66 13.3 -7 15 C-9.97 14.505 -9.97 14.505 -13 14 C-13 14.66 -13 15.32 -13 16 C-14.32 15.67 -15.64 15.34 -17 15 C-15.91332031 14.38125 -15.91332031 14.38125 -14.8046875 13.75 C-8.42246069 9.93768319 -3.91235284 6.3555099 0 0 Z " fill="#1B81E1" transform="translate(767,129)"/>
<path d="M0 0 C6.6 0 13.2 0 20 0 C20 0.99 20 1.98 20 3 C19.34 2.67 18.68 2.34 18 2 C18 2.66 18 3.32 18 4 C18.66 4 19.32 4 20 4 C20.33 4.99 20.66 5.98 21 7 C20.38125 6.731875 19.7625 6.46375 19.125 6.1875 C12.91268339 3.82681969 6.6038378 1.86892603 0 1 C0 0.67 0 0.34 0 0 Z " fill="#1981E2" transform="translate(744,88)"/>
<path d="M0 0 C0.66 0.33 1.32 0.66 2 1 C0.92643323 2.15498897 -0.15929788 3.29867867 -1.25 4.4375 C-1.85328125 5.07558594 -2.4565625 5.71367188 -3.078125 6.37109375 C-5.13692243 8.11605011 -6.43130707 8.40063832 -9 9 C-10.77148372 11.47933197 -10.77148372 11.47933197 -12 14 C-12.99 13.67 -13.98 13.34 -15 13 C-15 11.68 -15 10.36 -15 9 C-15.66 9 -16.32 9 -17 9 C-16.67 7.68 -16.34 6.36 -16 5 C-14.68 6.32 -13.36 7.64 -12 9 C-11.38511719 8.51789063 -10.77023437 8.03578125 -10.13671875 7.5390625 C-9.32847656 6.90742187 -8.52023437 6.27578125 -7.6875 5.625 C-6.88699219 4.99851562 -6.08648438 4.37203125 -5.26171875 3.7265625 C-3.55336788 2.42243282 -1.78827274 1.19218183 0 0 Z " fill="#2281DC" transform="translate(584,65)"/>
<path d="M0 0 C1.13583456 3.71727674 0.66670026 5.47051709 -1 9 C-0.01 9.33 0.98 9.66 2 10 C0.25737466 12.0177767 -0.89458007 12.96215695 -3.4375 13.875 C-6.64865334 15.28477464 -7.99428583 17.17714301 -10 20 C-10.66 19.67 -11.32 19.34 -12 19 C-11.46890625 18.38253906 -10.9378125 17.76507813 -10.390625 17.12890625 C-5.86478261 11.70285068 -2.43942022 6.64421033 0 0 Z " fill="#1C84DF" transform="translate(412,114)"/>
<path d="M0 0 C0.33 0 0.66 0 1 0 C0.23945318 9.43078051 -1.38671563 18.68556572 -3 28 C-3.33 28 -3.66 28 -4 28 C-4.38064163 19.20294908 -3.20731692 10.68836995 -2 2 C-1.34 2 -0.68 2 0 2 C0 1.34 0 0.68 0 0 Z " fill="#2181D8" transform="translate(49,186)"/>
<path d="M0 0 C0.66 1.32 1.32 2.64 2 4 C0.71034824 5.37562854 -0.62689293 6.70766393 -2 8 C-2.66 8 -3.32 8 -4 8 C-4 8.66 -4 9.32 -4 10 C-6.64 10 -9.28 10 -12 10 C-9.90012555 7.66680617 -8.38933715 6.15193645 -5.4375 5 C-2.59269216 3.83289935 -1.62160415 2.5604276 0 0 Z " fill="#0C80EF" transform="translate(406,128)"/>
<path d="M0 0 C0.93457031 0.00322266 1.86914062 0.00644531 2.83203125 0.00976562 C3.80011719 0.01814453 4.76820313 0.02652344 5.765625 0.03515625 C6.74917969 0.03966797 7.73273437 0.04417969 8.74609375 0.04882812 C11.16933291 0.06059142 13.59244773 0.07702941 16.015625 0.09765625 C16.015625 0.42765625 16.015625 0.75765625 16.015625 1.09765625 C11.395625 1.09765625 6.775625 1.09765625 2.015625 1.09765625 C1.685625 2.08765625 1.355625 3.07765625 1.015625 4.09765625 C-5.50745192 4.46688702 -5.50745192 4.46688702 -7.921875 2.59765625 C-8.4478125 1.85515625 -8.4478125 1.85515625 -8.984375 1.09765625 C-5.9161112 0.20015803 -3.19167524 -0.01946143 0 0 Z " fill="#1980E3" transform="translate(612.984375,55.90234375)"/>
<path d="M0 0 C0.33 0 0.66 0 1 0 C1.33 2.97 1.66 5.94 2 9 C1.34 9 0.68 9 0 9 C0.33 12.3 0.66 15.6 1 19 C0.01 19.33 -0.98 19.66 -2 20 C-2.33 20.66 -2.66 21.32 -3 22 C-2.69003741 19.27052356 -2.37712025 16.54144015 -2.0625 13.8125 C-1.97548828 13.04357422 -1.88847656 12.27464844 -1.79882812 11.48242188 C-1.35035579 7.61227172 -0.8470999 3.80813376 0 0 Z M3 5 C3.66 5.66 4.32 6.32 5 7 C4.01 7 3.02 7 2 7 C2.33 6.34 2.66 5.68 3 5 Z " fill="#2083DA" transform="translate(539,157)"/>
<path d="M0 0 C0.66 0 1.32 0 2 0 C0.49087042 4.98012761 -2.55661849 8.24259942 -6 12 C-7 10 -7 10 -6.0625 6.875 C-5.711875 5.92625 -5.36125 4.9775 -5 4 C-5.66 4 -6.32 4 -7 4 C-7 3.34 -7 2.68 -7 2 C-3.98968256 1.06576355 -3.13349732 0.95550089 0 2 C0 1.34 0 0.68 0 0 Z " fill="#0F82EF" transform="translate(913,160)"/>
<path d="M0 0 C1.86323318 0.25288812 3.71708432 0.57690153 5.5625 0.9375 C6.57441406 1.13214844 7.58632813 1.32679688 8.62890625 1.52734375 C9.80259766 1.76130859 9.80259766 1.76130859 11 2 C11 2.33 11 2.66 11 3 C8.03 3 5.06 3 2 3 C2 3.66 2 4.32 2 5 C1.34 5 0.68 5 0 5 C0 8.96 0 12.92 0 17 C-2 15 -2 15 -2.01171875 11.77734375 C-1.85123047 9.87662109 -1.85123047 9.87662109 -1.6875 7.9375 C-1.58824219 6.66777344 -1.48898437 5.39804688 -1.38671875 4.08984375 C-1 1 -1 1 0 0 Z " fill="#2884DB" transform="translate(341,192)"/>
<path d="M0 0 C0.33 0 0.66 0 1 0 C1.19456705 1.95764383 1.38044247 3.91615321 1.5625 5.875 C1.66691406 6.96554688 1.77132813 8.05609375 1.87890625 9.1796875 C2 12 2 12 1 14 C0.34 14 -0.32 14 -1 14 C-0.95875 14.86625 -0.9175 15.7325 -0.875 16.625 C-1.00457721 20.12358468 -1.76019656 22.74551597 -3 26 C-3.33 26 -3.66 26 -4 26 C-3.38641858 17.19828026 -1.70450615 8.64045258 0 0 Z " fill="#2986DD" transform="translate(30,112)"/>
<path d="M0 0 C1.32 1.32 2.64 2.64 4 4 C3.67 4.99 3.34 5.98 3 7 C10.92 7 18.84 7 27 7 C27 7.33 27 7.66 27 8 C18.09 8 9.18 8 0 8 C0 5.36 0 2.72 0 0 Z " fill="#1C84EB" transform="translate(449,172)"/>
<path d="M0 0 C-0.58476056 7.09406894 -1.63233995 14.01563899 -3 21 C-3.33 21 -3.66 21 -4 21 C-4.02703562 18.41659616 -4.04685611 15.83347692 -4.0625 13.25 C-4.07087891 12.52039063 -4.07925781 11.79078125 -4.08789062 11.0390625 C-4.11857629 4.28821715 -4.11857629 4.28821715 -3 1 C-1 0 -1 0 0 0 Z " fill="#1F80DE" transform="translate(453,76)"/>
<path d="M0 0 C0.99 0 1.98 0 3 0 C3 1.32 3 2.64 3 4 C2.34 4 1.68 4 1 4 C0.34 8.29 -0.32 12.58 -1 17 C-1.66 16.67 -2.32 16.34 -3 16 C-2.88628503 13.70774565 -2.75869036 11.41617612 -2.625 9.125 C-2.55539062 7.84882813 -2.48578125 6.57265625 -2.4140625 5.2578125 C-2 2 -2 2 0 0 Z " fill="#0F82EB" transform="translate(978,162)"/>
<path d="M0 0 C0.66 0 1.32 0 2 0 C1.88513575 2.37587624 1.75841844 4.75015171 1.625 7.125 C1.5940625 7.79015625 1.563125 8.4553125 1.53125 9.140625 C1.28080367 13.39821262 0.52471803 17.02085783 -1 21 C-2.46800688 19.03561669 -3.03217444 17.53263574 -2.88378906 15.07617188 C-2.52249521 12.78558931 -2.09207827 10.52135643 -1.625 8.25 C-1.47289063 7.45722656 -1.32078125 6.66445312 -1.1640625 5.84765625 C-0.78786303 3.8961215 -0.39549684 1.94771562 0 0 Z " fill="#2087E1" transform="translate(25,139)"/>
<path d="M0 0 C0.66 0 1.32 0 2 0 C1.45298368 7.44230094 0.45801591 14.68160944 -1 22 C-1.33 22 -1.66 22 -2 22 C-2.05807043 18.89591193 -2.09361914 15.7919636 -2.125 12.6875 C-2.14175781 11.80642578 -2.15851562 10.92535156 -2.17578125 10.01757812 C-2.18222656 9.17001953 -2.18867187 8.32246094 -2.1953125 7.44921875 C-2.20578613 6.66893311 -2.21625977 5.88864746 -2.22705078 5.0847168 C-2 3 -2 3 0 0 Z " fill="#2383DD" transform="translate(573,141)"/>
<path d="M0 0 C0.33 0 0.66 0 1 0 C1.33 4.95 1.66 9.9 2 15 C1.01 15.33 0.02 15.66 -1 16 C-1.33 17.65 -1.66 19.3 -2 21 C-2.33 21 -2.66 21 -3 21 C-2.48462048 13.86606248 -1.55994099 6.98187183 0 0 Z " fill="#2281E0" transform="translate(324,100)"/>
<path d="M0 0 C1.06605469 0.44988281 2.13210938 0.89976563 3.23046875 1.36328125 C5.8125 2.6875 5.8125 2.6875 6.8125 4.6875 C6.22082031 4.45933594 5.62914062 4.23117188 5.01953125 3.99609375 C-0.98133905 1.79813218 -0.98133905 1.79813218 -7.1875 2.6875 C-8.62222671 2.89515781 -10.060167 3.08134823 -11.5 3.25 C-13.3253125 3.4665625 -13.3253125 3.4665625 -15.1875 3.6875 C-14.548125 3.23375 -13.90875 2.78 -13.25 2.3125 C-11.09047594 0.84828274 -11.09047594 0.84828274 -10.1875 -1.3125 C-6.35327371 -3.07320531 -3.69146468 -1.59618753 0 0 Z " fill="#177CE2" transform="translate(552.1875,59.3125)"/>
<path d="M0 0 C0.99 0.66 1.98 1.32 3 2 C2.57405412 3.44096586 2.13373367 4.87768712 1.6875 6.3125 C1.44386719 7.11300781 1.20023438 7.91351563 0.94921875 8.73828125 C-0.04182023 11.09964573 -1.08074943 12.33879993 -3 14 C-3 3 -3 3 -1.5 1.3125 C-0.7575 0.6628125 -0.7575 0.6628125 0 0 Z " fill="#107FE6" transform="translate(797,130)"/>
<path d="M0 0 C0.66 0.33 1.32 0.66 2 1 C1.34 2.98 0.68 4.96 0 7 C-0.99 6.67 -1.98 6.34 -3 6 C-3 6.66 -3 7.32 -3 8 C-4.98 8.99 -6.96 9.98 -9 11 C-7.59928507 5.70841026 -4.14512755 3.22521956 0 0 Z " fill="#1B82E4" transform="translate(85,61)"/>
<path d="M0 0 C0.33 0 0.66 0 1 0 C1.06058594 1.09699219 1.12117187 2.19398437 1.18359375 3.32421875 C1.26804498 4.77865654 1.35269066 6.23308305 1.4375 7.6875 C1.47681641 8.40873047 1.51613281 9.12996094 1.55664062 9.87304688 C1.78185678 13.66707282 2.12839305 17.28651492 3 21 C1.01953125 19.51171875 1.01953125 19.51171875 -1 17 C-1.31788038 14.1215786 -1.42676526 11.66913149 -1.3125 8.8125 C-1.30283203 8.07580078 -1.29316406 7.33910156 -1.28320312 6.58007812 C-1.16870301 1.16870301 -1.16870301 1.16870301 0 0 Z " fill="#248CDF" transform="translate(216,116)"/>
<path d="M0 0 C0.33 0 0.66 0 1 0 C0.52550099 9.14034937 -0.2729614 17.99592496 -2 27 C-2.33 27 -2.66 27 -3 27 C-3.21329291 19.33330498 -3.01753688 12.40790258 -1 5 C-0.66013333 3.33465333 -0.32297514 1.66870487 0 0 Z " fill="#2881DA" transform="translate(962,86)"/>
<path d="M0 0 C1.231394 2.46278801 1.07159196 4.2795055 1 7 C-0.32 7 -1.64 7 -3 7 C-3.11214844 7.55171875 -3.22429687 8.1034375 -3.33984375 8.671875 C-4.11360773 11.40065211 -5.26817694 13.72772943 -6.5625 16.25 C-7.01753906 17.14203125 -7.47257813 18.0340625 -7.94140625 18.953125 C-8.29074219 19.62859375 -8.64007813 20.3040625 -9 21 C-10 19 -10 19 -9.43359375 17.1875 C-6.70146887 11.18753948 -3.49829743 5.58561489 0 0 Z " fill="#237EDD" transform="translate(196,89)"/>
<path d="M0 0 C0.66 0.33 1.32 0.66 2 1 C1.55269531 1.43828125 1.10539062 1.8765625 0.64453125 2.328125 C-4.69164769 7.92599288 -7.38578802 13.77176411 -10 21 C-10.33 21 -10.66 21 -11 21 C-10.69775048 12.68813825 -7.20400111 7.45694857 -1.625 1.4375 C-1.08875 0.963125 -0.5525 0.48875 0 0 Z " fill="#2E83D7" transform="translate(47,61)"/>
<path d="M0 0 C1.32 0.33 2.64 0.66 4 1 C1.44601719 5.16204606 -0.95054353 8.22931926 -5 11 C-5.66 11 -6.32 11 -7 11 C-6.67 9.35 -6.34 7.7 -6 6 C-5.01 6 -4.02 6 -3 6 C-2.67 5.34 -2.34 4.68 -2 4 C-1.34 4 -0.68 4 0 4 C0 2.68 0 1.36 0 0 Z " fill="#1A7FE0" transform="translate(123,164)"/>
<path d="M0 0 C1.2065625 0.0309375 1.2065625 0.0309375 2.4375 0.0625 C-2.26032416 5.99659367 -7.54899896 10.48701008 -13.5625 15.0625 C-13.5625 14.0725 -13.5625 13.0825 -13.5625 12.0625 C-11.84765625 10.52734375 -11.84765625 10.52734375 -9.625 9 C-6.56971843 6.99291865 -6.56971843 6.99291865 -4.5625 4.0625 C-3.9025 4.0625 -3.2425 4.0625 -2.5625 4.0625 C-2.8925 3.0725 -3.2225 2.0825 -3.5625 1.0625 C-2.5625 0.0625 -2.5625 0.0625 0 0 Z " fill="#2A81D6" transform="translate(785.5625,151.9375)"/>
<path d="M0 0 C0.66 0 1.32 0 2 0 C2 0.99 2 1.98 2 3 C3.32 3.33 4.64 3.66 6 4 C6 5.98 6 7.96 6 10 C6.66 10.33 7.32 10.66 8 11 C8.625 14.0625 8.625 14.0625 9 17 C3.91810524 12.6440902 0.83019484 6.64155871 0 0 Z " fill="#1C87E1" transform="translate(185,144)"/>
<path d="M0 0 C4.18000099 4.57809633 6.1875 10.91822059 6.1875 17.0625 C6.125625 18.031875 6.06375 19.00125 6 20 C5.34 20 4.68 20 4 20 C3.34 15.38 2.68 10.76 2 6 C1.01 6 0.02 6 -1 6 C-0.67 4.02 -0.34 2.04 0 0 Z " fill="#217FDA" transform="translate(661,80)"/>
<path d="M0 0 C0.66 0 1.32 0 2 0 C1.33644956 6.74609618 0.28134207 13.34448534 -1 20 C-1.33 20 -1.66 20 -2 20 C-2 17.36 -2 14.72 -2 12 C-2.66 11.67 -3.32 11.34 -4 11 C-3.2884375 10.2265625 -3.2884375 10.2265625 -2.5625 9.4375 C-0.57190593 6.33217325 -0.34939182 3.63367496 0 0 Z " fill="#1F84DF" transform="translate(445,110)"/>
<path d="M0 0 C0.47308594 0.39832031 0.94617188 0.79664063 1.43359375 1.20703125 C6.36397602 5.15710359 10.90032961 7.39036476 17 9 C17 9.33 17 9.66 17 10 C10.95198929 9.45018084 5.69398894 8.09570426 0 6 C0.66 5.67 1.32 5.34 2 5 C1.34 3.35 0.68 1.7 0 0 Z " fill="#207FDB" transform="translate(713,137)"/>
<path d="M0 0 C0.99 0.33 1.98 0.66 3 1 C-0.5087188 4.09592835 -3.49197399 5.74194623 -8 7 C-8 6.34 -8 5.68 -8 5 C-8.66 5 -9.32 5 -10 5 C-10 4.34 -10 3.68 -10 3 C-7.69 2.34 -5.38 1.68 -3 1 C-3 1.66 -3 2.32 -3 3 C-2.01 2.01 -1.02 1.02 0 0 Z " fill="#1985E4" transform="translate(940,153)"/>
<path d="M0 0 C1.98 0.66 3.96 1.32 6 2 C5.34 4.31 4.68 6.62 4 9 C3.01 8.34 2.02 7.68 1 7 C0.34 7.99 -0.32 8.98 -1 10 C-0.67 6.7 -0.34 3.4 0 0 Z " fill="#1080E8" transform="translate(930,93)"/>
<path d="M0 0 C0.66 0.33 1.32 0.66 2 1 C0.29647218 3.74457261 -0.87001075 4.9364497 -3.8125 6.375 C-7.75204854 8.3833973 -9.9935741 10.77882939 -13 14 C-13.66 13.67 -14.32 13.34 -15 13 C-10.30165217 8.08198915 -5.66492467 3.77661644 0 0 Z " fill="#2680D6" transform="translate(709,70)"/>
<path d="M0 0 C0.33 0 0.66 0 1 0 C1.38614349 6.8218683 0.00865708 12.49577707 -2 19 C-3.65 19 -5.3 19 -7 19 C-5.68 18.67 -4.36 18.34 -3 18 C-2.86722656 16.78441406 -2.73445313 15.56882813 -2.59765625 14.31640625 C-2.41949909 12.73174516 -2.24110125 11.1471111 -2.0625 9.5625 C-1.93198242 8.35883789 -1.93198242 8.35883789 -1.79882812 7.13085938 C-1.11328125 1.11328125 -1.11328125 1.11328125 0 0 Z " fill="#2F8DDD" transform="translate(483,161)"/>
<path d="M0 0 C1.27162597 3.8148779 0.64661571 5.3931275 -1 9 C-3.125 9.875 -3.125 9.875 -5 10 C-5 10.99 -5 11.98 -5 13 C-6.32 12.67 -7.64 12.34 -9 12 C-8.43410156 11.30132812 -7.86820312 10.60265625 -7.28515625 9.8828125 C-6.55167969 8.97273437 -5.81820313 8.06265625 -5.0625 7.125 C-4.33160156 6.22007812 -3.60070312 5.31515625 -2.84765625 4.3828125 C-0.9963748 2.15497253 -0.9963748 2.15497253 0 0 Z " fill="#1C80E1" transform="translate(272,129)"/>
<path d="M0 0 C-0.99844874 2.62092794 -1.55845329 3.77181261 -4.09375 5.08203125 C-4.8878125 5.32308594 -5.681875 5.56414062 -6.5 5.8125 C-7.2940625 6.06644531 -8.088125 6.32039063 -8.90625 6.58203125 C-11 7 -11 7 -13 6 C-11.21118264 4.99491199 -9.41885304 3.99607264 -7.625 3 C-6.62726562 2.443125 -5.62953125 1.88625 -4.6015625 1.3125 C-2 0 -2 0 0 0 Z " fill="#1D81DD" transform="translate(724,63)"/>
<path d="M0 0 C0 1.32 0 2.64 0 4 C-0.7425 4.28875 -1.485 4.5775 -2.25 4.875 C-4.56739797 5.82302644 -6.77917115 6.84845911 -9 8 C-9 7.01 -9 6.02 -9 5 C-7.5390625 3.61328125 -7.5390625 3.61328125 -5.625 2.3125 C-4.68527344 1.65701172 -4.68527344 1.65701172 -3.7265625 0.98828125 C-2 0 -2 0 0 0 Z " fill="#1B81DF" transform="translate(481,57)"/>
<path d="M0 0 C0 0.66 0 1.32 0 2 C-0.66 2 -1.32 2 -2 2 C-2.226875 2.804375 -2.45375 3.60875 -2.6875 4.4375 C-3.3371875 5.7059375 -3.3371875 5.7059375 -4 7 C-6.4375 7.6875 -6.4375 7.6875 -9 8 C-9.99 8.66 -10.98 9.32 -12 10 C-10.58426179 6.60812721 -8.95769034 4.90302459 -6 2.75 C-5.29875 2.22921875 -4.5975 1.7084375 -3.875 1.171875 C-2 0 -2 0 0 0 Z " fill="#2581DC" transform="translate(848,11)"/>
<path d="M0 0 C1 3 1 3 0.125 5.5 C-1.41054873 10.27726271 -1.66283437 15.01349784 -2 20 C-2.33 20 -2.66 20 -3 20 C-3 14.39 -3 8.78 -3 3 C-2.01 2.67 -1.02 2.34 0 2 C0 1.34 0 0.68 0 0 Z " fill="#2881D5" transform="translate(712,109)"/>
<path d="M0 0 C0.99 0 1.98 0 3 0 C3.268125 0.639375 3.53625 1.27875 3.8125 1.9375 C4.88667752 4.33131686 4.88667752 4.33131686 8 5 C9.5625 7.375 9.5625 7.375 11 10 C11.99 11.485 11.99 11.485 13 13 C9.90137066 11.6213147 7.75876568 10.02976802 5.375 7.625 C4.78460937 7.03976563 4.19421875 6.45453125 3.5859375 5.8515625 C1.99106226 3.9895653 0.99301022 2.23181505 0 0 Z " fill="#297ED3" transform="translate(684,156)"/>
<path d="M0 0 C0.66 0 1.32 0 2 0 C1.9129995 1.62600941 1.8048219 3.25089678 1.6875 4.875 C1.62949219 5.77992187 1.57148438 6.68484375 1.51171875 7.6171875 C1 10 1 10 -2 12 C-1.85904936 10.3745692 -1.71207913 8.74965949 -1.5625 7.125 C-1.48128906 6.22007813 -1.40007812 5.31515625 -1.31640625 4.3828125 C-1 2 -1 2 0 0 Z " fill="#167EE4" transform="translate(357,95)"/>
<path d="M0 0 C3.78962312 3.78962312 4.91206179 9.32917408 5.1875 14.5625 C5.125625 15.366875 5.06375 16.17125 5 17 C3 14 3 14 3 10 C2.34 10 1.68 10 1 10 C0.67 6.7 0.34 3.4 0 0 Z " fill="#267FD7" transform="translate(800,85)"/>
<path d="M0 0 C0.66 0.33 1.32 0.66 2 1 C0.26440562 4.057952 -1.38472619 6.63379989 -4 9 C-4.66 7.02 -5.32 5.04 -6 3 C-4.68 2.34 -3.36 1.68 -2 1 C-1.34 1.66 -0.68 2.32 0 3 C0 2.01 0 1.02 0 0 Z " fill="#1180E8" transform="translate(719,97)"/>
<path d="M0 0 C0.33 0.66 0.66 1.32 1 2 C0.690625 2.680625 0.38125 3.36125 0.0625 4.0625 C-1.38909643 8.07573718 -1.16560771 11.77700348 -1 16 C-1.99 16 -2.98 16 -4 16 C-3.65697965 10.01488629 -3.17692157 5.24882694 0 0 Z " fill="#2A81D4" transform="translate(75,72)"/>
<path d="M0 0 C1.98 0.495 1.98 0.495 4 1 C4.08159574 5.16138263 3.98248524 8.9472484 3 13 C2.67 13 2.34 13 2 13 C1.67 10.36 1.34 7.72 1 5 C0.01 5.495 0.01 5.495 -1 6 C-0.67 4.02 -0.34 2.04 0 0 Z " fill="#177DE3" transform="translate(451,63)"/>
<path d="M0 0 C5.78461538 4.43076923 5.78461538 4.43076923 6.875 7.3125 C6.936875 8.1478125 6.936875 8.1478125 7 9 C5.35 8.67 3.7 8.34 2 8 C1.34 5.36 0.68 2.72 0 0 Z " fill="#1A80DC" transform="translate(170,60)"/>
<path d="M0 0 C0.99 0 1.98 0 3 0 C3 0.66 3 1.32 3 2 C3.99 2.33 4.98 2.66 6 3 C4.35 5.97 2.7 8.94 1 12 C-0.2077558 8.37673261 0.45688872 7.35853631 2 4 C1.34 3.67 0.68 3.34 0 3 C0 2.01 0 1.02 0 0 Z " fill="#197FE5" transform="translate(218,100)"/>
<path d="M0 0 C0.33 0 0.66 0 1 0 C1.33 4.95 1.66 9.9 2 15 C1.01 15.33 0.02 15.66 -1 16 C-1.09688221 10.55306686 -1.12862175 5.36095333 0 0 Z " fill="#207AE2" transform="translate(822,76)"/>
<path d="M0 0 C-0.0625 1.75 -0.0625 1.75 -1 4 C-3.25123006 5.72518887 -5.40134903 6.76906007 -8 8 C-8.66 7.67 -9.32 7.34 -10 7 C-8.71372289 5.82739389 -7.42080217 4.6620717 -6.125 3.5 C-5.04605469 2.52546875 -5.04605469 2.52546875 -3.9453125 1.53125 C-2 0 -2 0 0 0 Z " fill="#1F82DF" transform="translate(216,70)"/>
<path d="M0 0 C1.56393356 3.97376829 0.36145292 6.81377903 -0.9375 10.75 C-1.31777344 11.92046875 -1.69804687 13.0909375 -2.08984375 14.296875 C-2.39019531 15.18890625 -2.69054687 16.0809375 -3 17 C-5.03719911 10.88840268 -2.60006261 5.53926381 0 0 Z " fill="#2984D8" transform="translate(436,164)"/>
<path d="M0 0 C1.64666203 0.1135629 3.29236082 0.24117381 4.9375 0.375 C5.85402344 0.44460937 6.77054688 0.51421875 7.71484375 0.5859375 C8.84599609 0.79089844 8.84599609 0.79089844 10 1 C10.33 1.66 10.66 2.32 11 3 C10.67 3.66 10.34 4.32 10 5 C7.69 4.34 5.38 3.68 3 3 C3 2.34 3 1.68 3 1 C2.01 0.67 1.02 0.34 0 0 Z " fill="#1581E5" transform="translate(526,87)"/>
<path d="M0 0 C4.99275057 1.27721526 7.57611908 3.17330957 11 7 C9.02 7 7.04 7 5 7 C5 5.68 5 4.36 5 3 C3.35 2.67 1.7 2.34 0 2 C0 1.34 0 0.68 0 0 Z " fill="#1E7AE0" transform="translate(641,61)"/>
<path d="M0 0 C-1.75 1.125 -1.75 1.125 -4 2 C-6.0625 1.0625 -6.0625 1.0625 -8 0 C-8.99 0.33 -9.98 0.66 -11 1 C-10.67 0.01 -10.34 -0.98 -10 -2 C-5.82412255 -3.39195915 -3.86525224 -1.82323219 0 0 Z " fill="#1379E6" transform="translate(169,59)"/>
<path d="M0 0 C0.91058531 3.07322544 1.08886184 5.80097361 1 9 C-0.32 8.67 -1.64 8.34 -3 8 C-3.33 8.99 -3.66 9.98 -4 11 C-3.48964169 6.6109185 -2.47785723 3.66291938 0 0 Z " fill="#1F7EDF" transform="translate(835,21)"/>
<path d="M0 0 C0.99 0 1.98 0 3 0 C2.88590318 2.10478604 2.75834639 4.20884577 2.625 6.3125 C2.52058594 8.07013672 2.52058594 8.07013672 2.4140625 9.86328125 C2 13 2 13 0 16 C0 10.72 0 5.44 0 0 Z " fill="#067FF3" transform="translate(991,163)"/>
<path d="M0 0 C0.33 0 0.66 0 1 0 C1 2.31 1 4.62 1 7 C1.54269531 6.77183594 2.08539062 6.54367188 2.64453125 6.30859375 C3.35996094 6.02113281 4.07539062 5.73367187 4.8125 5.4375 C5.52019531 5.14746094 6.22789062 4.85742188 6.95703125 4.55859375 C9 4 9 4 12 5 C8.04 6.32 4.08 7.64 0 9 C-1.15941038 5.52176885 -0.70820884 3.54104422 0 0 Z " fill="#2E87CD" transform="translate(919,156)"/>
<path d="M0 0 C1.485 0.99 1.485 0.99 3 2 C4.9896995 2.39013716 6.99019869 2.73202649 9 3 C6.14693203 5.32472205 3.45925163 6.7508258 0 8 C0.185625 7.236875 0.37125 6.47375 0.5625 5.6875 C1.22819173 2.91032625 1.22819173 2.91032625 0 0 Z " fill="#1982E4" transform="translate(592,88)"/>
<path d="M0 0 C-3.74525799 3.74525799 -7.98270909 3.68909949 -13 4 C-8.32733754 0.41762545 -5.97976363 -0.11073636 0 0 Z " fill="#2084E3" transform="translate(100,57)"/>
<path d="M0 0 C0.66 0 1.32 0 2 0 C1.48964169 4.3890815 0.47785723 7.33708062 -2 11 C-2.95465783 8.83032311 -3.14401212 7.43671207 -2.3984375 5.17578125 C-1.64129615 3.4315257 -0.82390802 1.71372869 0 0 Z " fill="#1F7ED4" transform="translate(989,163)"/>
<path d="M0 0 C2.97 0.495 2.97 0.495 6 1 C6.33 1.99 6.66 2.98 7 4 C7.99 4.33 8.98 4.66 10 5 C10.33 5.99 10.66 6.98 11 8 C6.40378078 6.5129879 3.53027653 4.20187872 0 1 C0 0.67 0 0.34 0 0 Z " fill="#267FDF" transform="translate(197,165)"/>
<path d="M0 0 C0 0.66 0 1.32 0 2 C-1.32 2 -2.64 2 -4 2 C-4.33 2.99 -4.66 3.98 -5 5 C-7.31 4.67 -9.62 4.34 -12 4 C-8.14070855 1.42713903 -4.66785662 0 0 0 Z " fill="#2383DB" transform="translate(736,59)"/>
<path d="M0 0 C5.53846154 -0.36923077 5.53846154 -0.36923077 7.875 1.5 C8.24625 1.995 8.6175 2.49 9 3 C7.68 3 6.36 3 5 3 C5 3.66 5 4.32 5 5 C3.35 4.67 1.7 4.34 0 4 C0 2.66666667 0 1.33333333 0 0 Z " fill="#147FE4" transform="translate(298,57)"/>
<path d="M0 0 C4.75 0.875 4.75 0.875 7 2 C7 2.66 7 3.32 7 4 C3.625 4.625 3.625 4.625 0 5 C-0.66 4.34 -1.32 3.68 -2 3 C-1.34 2.34 -0.68 1.68 0 1 C0 0.67 0 0.34 0 0 Z " fill="#1B7EE8" transform="translate(948,57)"/>
<path d="M0 0 C1.32 0.66 2.64 1.32 4 2 C1.25 8.875 1.25 8.875 -1 10 C-1 9.01 -1 8.02 -1 7 C-0.34 7 0.32 7 1 7 C0.34 5.02 -0.32 3.04 -1 1 C-0.67 0.67 -0.34 0.34 0 0 Z " fill="#1281E7" transform="translate(418,197)"/>
<path d="M0 0 C2.0625 2.25 2.0625 2.25 4 5 C3.75 7.3125 3.75 7.3125 3 9 C2.34 9 1.68 9 1 9 C0.87625 7.865625 0.7525 6.73125 0.625 5.5625 C0.41875 4.386875 0.2125 3.21125 0 2 C-0.66 1.67 -1.32 1.34 -2 1 C-1.34 0.67 -0.68 0.34 0 0 Z " fill="#0E81F3" transform="translate(982,170)"/>
<path d="M0 0 C0.66 1.32 1.32 2.64 2 4 C1.67 4.66 1.34 5.32 1 6 C-1.32156597 6.40729228 -3.6568787 6.74438677 -6 7 C-4.02 4.69 -2.04 2.38 0 0 Z " fill="#1C7FDE" transform="translate(395,183)"/>
<path d="M0 0 C0.66 0.33 1.32 0.66 2 1 C0.02 3.31 -1.96 5.62 -4 8 C-5 6 -5 6 -4.25 3.4375 C-3 1 -3 1 0 0 Z " fill="#1F81DD" transform="translate(911,164)"/>
<path d="M0 0 C1.65 0 3.3 0 5 0 C2.03716687 2.38672669 -0.94270509 4.7353371 -4 7 C-3.67 5.35 -3.34 3.7 -3 2 C-2.01 2 -1.02 2 0 2 C0 1.34 0 0.68 0 0 Z " fill="#1F82D9" transform="translate(724,93)"/>
<path d="M0 0 C1.98 0.66 3.96 1.32 6 2 C5.01 3.32 4.02 4.64 3 6 C1.68 4.68 0.36 3.36 -1 2 C-0.67 1.34 -0.34 0.68 0 0 Z " fill="#0986F4" transform="translate(450,170)"/>
<path d="M0 0 C0.66 0 1.32 0 2 0 C0.64978174 4.41889613 -1.26115668 6.34345343 -5 9 C-4.67 7.35 -4.34 5.7 -4 4 C-3.01 4 -2.02 4 -1 4 C-0.67 2.68 -0.34 1.36 0 0 Z " fill="#2780D7" transform="translate(949,144)"/>
<path d="M0 0 C0.66 0 1.32 0 2 0 C2 2.31 2 4.62 2 7 C1.01 7 0.02 7 -1 7 C-0.67 4.69 -0.34 2.38 0 0 Z " fill="#24A0FC" transform="translate(990,166)"/>
<path d="M0 0 C0.680625 0.33 1.36125 0.66 2.0625 1 C5.50840238 2.17307315 8.38397422 2.14180493 12 2 C12 2.66 12 3.32 12 4 C4.25 5.125 4.25 5.125 2 4 C2 3.34 2 2.68 2 2 C1.34 2 0.68 2 0 2 C0 1.34 0 0.68 0 0 Z " fill="#0B78EB" transform="translate(225,145)"/>
<path d="M0 0 C0.33 0 0.66 0 1 0 C1.66 3.96 2.32 7.92 3 12 C-1 8 -1 8 -1.171875 5.859375 C-0.78125 3.90625 -0.390625 1.953125 0 0 Z " fill="#297ED5" transform="translate(216,125)"/>
<path d="M0 0 C1 3 1 3 -0.4375 6.1875 C-1.2109375 7.5796875 -1.2109375 7.5796875 -2 9 C-2.66 9 -3.32 9 -4 9 C-3.35455571 5.51460083 -1.89865603 2.97180943 0 0 Z " fill="#1B7ADE" transform="translate(687,92)"/>
<path d="M0 0 C-1.2065625 0.556875 -1.2065625 0.556875 -2.4375 1.125 C-5.31172896 2.8109337 -5.31172896 2.8109337 -5.8125 6.1875 C-5.874375 7.115625 -5.93625 8.04375 -6 9 C-6.33 9 -6.66 9 -7 9 C-7 6.03 -7 3.06 -7 0 C-3.86650268 -1.04449911 -3.01031744 -0.93423645 0 0 Z " fill="#2782DC" transform="translate(502,89)"/>
<path d="M0 0 C1.07310858 3.27185553 0.89263102 5.42947592 0.0625 8.75 C-0.13214844 9.54921875 -0.32679688 10.3484375 -0.52734375 11.171875 C-0.68332031 11.77515625 -0.83929688 12.3784375 -1 13 C-1.33 13 -1.66 13 -2 13 C-2.05416188 11.39620659 -2.09286638 9.79188594 -2.125 8.1875 C-2.14820313 7.29417969 -2.17140625 6.40085937 -2.1953125 5.48046875 C-2 3 -2 3 0 0 Z " fill="#2287E9" transform="translate(144,104)"/>
<path d="M0 0 C2.31 0.33 4.62 0.66 7 1 C6.67 2.65 6.34 4.3 6 6 C3.97945196 4.35830472 1.97956942 2.69088222 0 1 C0 0.67 0 0.34 0 0 Z " fill="#1D81E3" transform="translate(536,92)"/>
<path d="M0 0 C0.99 0.33 1.98 0.66 3 1 C3 3.31 3 5.62 3 8 C2.34 8 1.68 8 1 8 C1 6.02 1 4.04 1 2 C0.34 1.67 -0.32 1.34 -1 1 C-0.67 0.67 -0.34 0.34 0 0 Z " fill="#1B7CDC" transform="translate(66,76)"/>
<path d="M0 0 C-3.00617269 3.00617269 -5.82381598 2.59585316 -10 3 C-7.29536552 -0.8183075 -4.37912428 -0.24787496 0 0 Z " fill="#2983DA" transform="translate(897,177)"/>
<path d="M0 0 C0.33 0 0.66 0 1 0 C1.33 2.97 1.66 5.94 2 9 C1.34 9 0.68 9 0 9 C-1.10844919 5.67465243 -0.84454356 3.37817425 0 0 Z M3 5 C3.66 5.66 4.32 6.32 5 7 C4.01 7 3.02 7 2 7 C2.33 6.34 2.66 5.68 3 5 Z " fill="#1884EA" transform="translate(539,157)"/>
<path d="M0 0 C3.35620271 1.38877354 5.07298728 2.91677965 7 6 C7 6.66 7 7.32 7 8 C6.01 8 5.02 8 4 8 C3.71125 7.236875 3.4225 6.47375 3.125 5.6875 C2.03730987 2.84970692 2.03730987 2.84970692 0 0 Z " fill="#267CD4" transform="translate(307,60)"/>
<path d="" fill="#FFFFFF" transform="translate(0,0)"/>
<path d="" fill="#FFFFFF" transform="translate(0,0)"/>
<path d="" fill="#FFFFFF" transform="translate(0,0)"/>
<path d="" fill="#FFFFFF" transform="translate(0,0)"/>
<path d="" fill="#FFFFFF" transform="translate(0,0)"/>
<path d="" fill="#FFFFFF" transform="translate(0,0)"/>
<path d="" fill="#FFFFFF" transform="translate(0,0)"/>
<path d="" fill="#FFFFFF" transform="translate(0,0)"/>
<path d="" fill="#FFFFFF" transform="translate(0,0)"/>
<path d="" fill="#FFFFFF" transform="translate(0,0)"/>
<path d="" fill="#FFFFFF" transform="translate(0,0)"/>
<path d="" fill="#FFFFFF" transform="translate(0,0)"/>
<path d="" fill="#FFFFFF" transform="translate(0,0)"/>
<path d="" fill="#FFFFFF" transform="translate(0,0)"/>
<path d="" fill="#FFFFFF" transform="translate(0,0)"/>
<path d="" fill="#FFFFFF" transform="translate(0,0)"/>
<path d="" fill="#FFFFFF" transform="translate(0,0)"/>
<path d="" fill="#FFFFFF" transform="translate(0,0)"/>
<path d="" fill="#FFFFFF" transform="translate(0,0)"/>
<path d="" fill="#FFFFFF" transform="translate(0,0)"/>
<path d="" fill="#FFFFFF" transform="translate(0,0)"/>
<path d="" fill="#FFFFFF" transform="translate(0,0)"/>
<path d="" fill="#FFFFFF" transform="translate(0,0)"/>
<path d="" fill="#FFFFFF" transform="translate(0,0)"/>
<path d="" fill="#FFFFFF" transform="translate(0,0)"/>
<path d="" fill="#FFFFFF" transform="translate(0,0)"/>
<path d="" fill="#FFFFFF" transform="translate(0,0)"/>
<path d="" fill="#FFFFFF" transform="translate(0,0)"/>
<path d="" fill="#FFFFFF" transform="translate(0,0)"/>
<path d="" fill="#FFFFFF" transform="translate(0,0)"/>
<path d="" fill="#FFFFFF" transform="translate(0,0)"/>
<path d="" fill="#FFFFFF" transform="translate(0,0)"/>
<path d="" fill="#FFFFFF" transform="translate(0,0)"/>
<path d="" fill="#FFFFFF" transform="translate(0,0)"/>
<path d="" fill="#FFFFFF" transform="translate(0,0)"/>
<path d="" fill="#FFFFFF" transform="translate(0,0)"/>
<path d="" fill="#FFFFFF" transform="translate(0,0)"/>
<path d="" fill="#FFFFFF" transform="translate(0,0)"/>
<path d="" fill="#FFFFFF" transform="translate(0,0)"/>
<path d="" fill="#FFFFFF" transform="translate(0,0)"/>
<path d="" fill="#FFFFFF" transform="translate(0,0)"/>
<path d="" fill="#FFFFFF" transform="translate(0,0)"/>
<path d="" fill="#FFFFFF" transform="translate(0,0)"/>
<path d="" fill="#FFFFFF" transform="translate(0,0)"/>
<path d="" fill="#FFFFFF" transform="translate(0,0)"/>
<path d="" fill="#FFFFFF" transform="translate(0,0)"/>
<path d="" fill="#FFFFFF" transform="translate(0,0)"/>
<path d="" fill="#FFFFFF" transform="translate(0,0)"/>
<path d="" fill="#FFFFFF" transform="translate(0,0)"/>
<path d="" fill="#FFFFFF" transform="translate(0,0)"/>
<path d="" fill="#FFFFFF" transform="translate(0,0)"/>
<path d="" fill="#FFFFFF" transform="translate(0,0)"/>
<path d="" fill="#FFFFFF" transform="translate(0,0)"/>
<path d="" fill="#FFFFFF" transform="translate(0,0)"/>
<path d="" fill="#FFFFFF" transform="translate(0,0)"/>
<path d="" fill="#FFFFFF" transform="translate(0,0)"/>
<path d="" fill="#FFFFFF" transform="translate(0,0)"/>
<path d="" fill="#FFFFFF" transform="translate(0,0)"/>
<path d="" fill="#FFFFFF" transform="translate(0,0)"/>
<path d="" fill="#FFFFFF" transform="translate(0,0)"/>
<path d="" fill="#FFFFFF" transform="translate(0,0)"/>
<path d="" fill="#FFFFFF" transform="translate(0,0)"/>
<path d="" fill="#FFFFFF" transform="translate(0,0)"/>
<path d="" fill="#FFFFFF" transform="translate(0,0)"/>
<path d="" fill="#FFFFFF" transform="translate(0,0)"/>
<path d="" fill="#FFFFFF" transform="translate(0,0)"/>
<path d="" fill="#FFFFFF" transform="translate(0,0)"/>
<path d="" fill="#FFFFFF" transform="translate(0,0)"/>
<path d="" fill="#FFFFFF" transform="translate(0,0)"/>
</svg>
